<svg width="247" height="208" viewBox="0 0 247 208" fill="none" xmlns="http://www.w3.org/2000/svg">
<g clip-path="url(#clip0)">
<path d="M206.319 182.3L182.49 182.249C182.49 182.249 165.689 182.317 165.501 170.366C165.312 158.021 174.69 157.644 181.718 157.644C188.747 157.644 207.107 158.534 207.107 144.1C207.107 129.666 182.095 132.029 182.095 132.029L81.7731 131.892L29.8462 132.115C29.8462 132.115 5.22852 131.892 5.22852 144.237C5.22852 159.253 29.8462 157.593 29.8462 157.593L53.6754 157.644C53.6754 157.644 70.4757 157.576 70.6643 169.527C70.8529 181.872 62.8641 182.249 55.8354 182.249C48.8067 182.249 30.4462 181.358 30.4462 195.792C30.4462 210.226 55.4582 207.863 55.4582 207.863L154.392 208L206.319 207.778C206.319 207.778 230.937 208 230.937 195.655C230.937 181.615 206.319 182.3 206.319 182.3Z" fill="#E6E6E6"/>
<g opacity="0.15">
<path opacity="0.15" d="M6.57485 83.8476C6.88391 82.2315 5.73979 80.6553 4.0194 80.3271C2.299 79.9989 0.65381 81.043 0.344753 82.6591C0.0356963 84.2752 1.17981 85.8514 2.9002 86.1796C4.6206 86.5078 6.2658 85.4637 6.57485 83.8476Z" stroke="#67CDFD" stroke-width="0.3576" stroke-miterlimit="10"/>
<path opacity="0.15" d="M184.508 22.4416C184.818 20.8255 183.673 19.2493 181.953 18.9211C180.233 18.5929 178.587 19.637 178.278 21.2531C177.969 22.8692 179.113 24.4454 180.834 24.7736C182.554 25.1018 184.199 24.0577 184.508 22.4416Z" stroke="#67CDFD" stroke-width="0.3576" stroke-miterlimit="10"/>
<path opacity="0.15" d="M246.659 136.224C246.35 137.851 244.705 138.895 242.99 138.57C241.276 138.245 240.127 136.669 240.436 135.043C240.744 133.416 242.39 132.372 244.105 132.697C245.819 133.022 246.967 134.615 246.659 136.224Z" stroke="#67CDFD" stroke-width="0.3576" stroke-miterlimit="10"/>
<path opacity="0.15" d="M93.7905 19.4851C93.6362 20.2556 92.8648 20.7351 92.0591 20.581C91.2533 20.4269 90.7047 19.6735 90.859 18.9201C91.0133 18.1496 91.7848 17.6702 92.5905 17.8243C93.3962 17.9784 93.9277 18.7318 93.7905 19.4851Z" stroke="#67CDFD" stroke-width="0.3576" stroke-miterlimit="10"/>
<path opacity="0.15" d="M226.529 178.124C226.675 177.363 226.137 176.62 225.328 176.466C224.519 176.311 223.745 176.804 223.6 177.565C223.454 178.327 223.992 179.069 224.801 179.224C225.61 179.378 226.384 178.886 226.529 178.124Z" stroke="#67CDFD" stroke-width="0.3576" stroke-miterlimit="10"/>
<path opacity="0.15" d="M50.9165 119.273C50.7622 120.044 49.9908 120.523 49.185 120.369C48.3793 120.215 47.8307 119.462 47.985 118.708C48.1393 117.938 48.9107 117.458 49.7165 117.612C50.5222 117.767 51.0537 118.503 50.9165 119.273Z" stroke="#67CDFD" stroke-width="0.3576" stroke-miterlimit="10"/>
<path opacity="0.15" d="M238.823 66.4512C238.668 67.2217 237.897 67.7012 237.091 67.5471C236.286 67.393 235.737 66.6396 235.891 65.8862C236.046 65.1328 236.817 64.6363 237.623 64.7904C238.428 64.9445 238.977 65.6979 238.823 66.4512Z" stroke="#67CDFD" stroke-width="0.3576" stroke-miterlimit="10"/>
</g>
<path d="M29.9673 127.526C30.2587 126.653 31.253 126.191 32.1788 126.482C33.1045 126.773 33.6188 127.732 33.3274 128.605C33.0359 129.478 32.0416 129.941 31.1159 129.65C30.1902 129.359 29.6759 128.4 29.9673 127.526Z" stroke="#67CDFD" stroke-width="0.3576" stroke-miterlimit="10"/>
<path d="M17.3853 137.663C17.6767 136.789 18.671 136.327 19.5968 136.618C20.5225 136.909 21.0368 137.868 20.7453 138.741C20.4539 139.615 19.4596 140.077 18.5339 139.786C17.6081 139.478 17.0938 138.536 17.3853 137.663Z" stroke="#67CDFD" stroke-width="0.3576" stroke-miterlimit="10"/>
<path d="M16.5622 122.201C16.8537 121.328 17.848 120.866 18.7737 121.157C19.6995 121.448 20.2137 122.407 19.9223 123.28C19.6309 124.153 18.6366 124.615 17.7108 124.324C16.768 124.033 16.2537 123.074 16.5622 122.201Z" stroke="#67CDFD" stroke-width="0.3576" stroke-miterlimit="10"/>
<path d="M0.926289 139.529C1.21772 138.656 2.21203 138.193 3.13777 138.485C4.0635 138.776 4.5778 139.734 4.28637 140.608C3.99493 141.481 3.00062 141.943 2.07489 141.652C1.14915 141.361 0.634853 140.402 0.926289 139.529Z" stroke="#67CDFD" stroke-width="0.3576" stroke-miterlimit="10"/>
<path d="M30.4463 128.862L19.8003 136.481C19.7146 136.55 19.5946 136.498 19.5775 136.395L17.726 124.478C17.7088 124.427 17.6403 124.393 17.606 124.444L3.80566 138.861" stroke="#67CDFD" stroke-width="0.3576" stroke-miterlimit="10"/>
<path d="M186.674 104.839C187.411 104.257 188.526 104.377 189.16 105.079C189.794 105.798 189.691 106.842 188.954 107.425C188.217 108.007 187.103 107.887 186.469 107.185C185.834 106.483 185.92 105.421 186.674 104.839Z" stroke="#67CDFD" stroke-width="0.3576" stroke-miterlimit="10"/>
<path d="M194.645 91.518C195.382 90.9358 196.496 91.0557 197.131 91.7577C197.765 92.4768 197.662 93.5212 196.925 94.1034C196.188 94.6856 195.074 94.5657 194.439 93.8637C193.805 93.1446 193.891 92.1001 194.645 91.518Z" stroke="#67CDFD" stroke-width="0.3576" stroke-miterlimit="10"/>
<path d="M171.501 98.1098C172.239 97.5276 173.353 97.6475 173.987 98.3495C174.621 99.0686 174.519 100.113 173.781 100.695C173.044 101.277 171.93 101.157 171.296 100.455C170.661 99.7364 170.747 98.6748 171.501 98.1098Z" stroke="#67CDFD" stroke-width="0.3576" stroke-miterlimit="10"/>
<path d="M189.159 105.096L194.371 94.1035C194.405 94.035 194.337 93.9665 194.268 93.9836L174.348 98.9833" stroke="#67CDFD" stroke-width="0.3576" stroke-miterlimit="10"/>
<path d="M125.643 3.64727C124.666 3.71576 123.808 3.01375 123.723 2.08915C123.637 1.16456 124.357 0.376937 125.317 0.308448C126.277 0.23996 127.151 0.941968 127.237 1.86656C127.323 2.79116 126.62 3.57878 125.643 3.64727Z" stroke="#67CDFD" stroke-width="0.3576" stroke-miterlimit="10"/>
<path d="M140.625 10.9072C139.648 10.9756 138.791 10.2736 138.705 9.34904C138.619 8.42444 139.339 7.63682 140.299 7.56834C141.277 7.49985 142.134 8.20186 142.22 9.12645C142.305 10.051 141.585 10.8387 140.625 10.9072Z" stroke="#67CDFD" stroke-width="0.3576" stroke-miterlimit="10"/>
<path d="M125.917 17.311C124.94 17.3795 124.083 16.6774 123.997 15.7528C123.911 14.8283 124.631 14.0406 125.591 13.9721C126.552 13.9037 127.426 14.6057 127.512 15.5303C127.597 16.4549 126.894 17.2596 125.917 17.311Z" stroke="#67CDFD" stroke-width="0.3576" stroke-miterlimit="10"/>
<path d="M126.74 2.73987L138.552 9.28053C138.621 9.31478 138.621 9.41751 138.552 9.45176L127.512 15.5472" stroke="#67CDFD" stroke-width="0.3576" stroke-miterlimit="10"/>
<path d="M215.043 46.7433C214.94 47.3255 214.357 47.6851 213.74 47.5823C213.123 47.4625 212.729 46.8974 212.832 46.3324C212.935 45.7503 213.517 45.3907 214.135 45.4934C214.752 45.5962 215.146 46.1783 215.043 46.7433Z" stroke="#67CDFD" stroke-width="0.3576" stroke-miterlimit="10"/>
<path d="M202.649 54.5685C202.409 55.8013 201.175 56.5889 199.872 56.3492C198.569 56.0923 197.712 54.9109 197.935 53.6781C198.175 52.4453 199.409 51.6577 200.712 51.8974C202.015 52.1371 202.872 53.3357 202.649 54.5685Z" stroke="#67CDFD" stroke-width="0.3576" stroke-miterlimit="10"/>
<path d="M207.157 53.3869C209.729 63.6773 208.7 72.6665 204.86 73.4541C201.02 74.2417 195.809 66.5367 193.237 56.2463C190.666 45.9559 191.694 36.9668 195.534 36.1792C199.374 35.3915 204.569 43.0794 207.157 53.3869Z" stroke="#67CDFD" stroke-width="0.3576" stroke-miterlimit="10"/>
<path d="M217.449 64.9219C219.354 61.6751 213.165 54.515 203.625 48.9296C194.085 43.3442 184.806 41.4484 182.901 44.6953C180.995 47.9421 187.184 55.1021 196.724 60.6876C206.265 66.273 215.543 68.1688 217.449 64.9219Z" stroke="#67CDFD" stroke-width="0.3576" stroke-miterlimit="10"/>
<path d="M201.952 61.4334C212.59 58.5938 220.421 53.3294 219.443 49.6751C218.466 46.0208 209.049 45.3604 198.411 48.2C187.773 51.0396 179.942 56.3039 180.92 59.9582C181.898 63.6125 191.314 64.273 201.952 61.4334Z" stroke="#67CDFD" stroke-width="0.3576" stroke-miterlimit="10"/>
<path d="M49.3696 31.3116C49.9504 28.2745 47.8129 25.3148 44.5953 24.701C41.3777 24.0871 38.2985 26.0517 37.7177 29.0888C37.1369 32.126 39.2744 35.0857 42.492 35.6995C45.7096 36.3133 48.7888 34.3488 49.3696 31.3116Z" stroke="#67CDFD" stroke-width="0.3576" stroke-miterlimit="10"/>
<path d="M29.3142 40.2205C30.1371 40.4088 30.6685 41.1793 30.48 41.9669C30.3085 42.7374 29.4857 43.2169 28.6628 43.0456C27.8399 42.8573 27.3085 42.0868 27.497 41.2992C27.6856 40.5116 28.4914 40.0321 29.3142 40.2205Z" stroke="#67CDFD" stroke-width="0.3576" stroke-miterlimit="10"/>
<path d="M30.1709 41.0421L39.2911 34.3645" stroke="#67CDFD" stroke-width="0.3576" stroke-miterlimit="10"/>
<path d="M30.1717 19.8792C30.9945 20.0676 31.526 20.8381 31.3374 21.6257C31.166 22.3962 30.3431 22.8756 29.5202 22.7044C28.6973 22.516 28.1659 21.7455 28.3545 20.9579C28.543 20.1874 29.3488 19.6909 30.1717 19.8792Z" stroke="#67CDFD" stroke-width="0.3576" stroke-miterlimit="10"/>
<path d="M31.0107 22.0195L38.8624 26.574" stroke="#67CDFD" stroke-width="0.3576" stroke-miterlimit="10"/>
<path d="M51.1375 39.964C51.9604 40.1524 52.4918 40.9229 52.3032 41.7105C52.1318 42.481 51.3089 42.9604 50.486 42.7892C49.6632 42.6008 49.1317 41.8303 49.3203 41.0427C49.5089 40.2551 50.3146 39.7757 51.1375 39.964Z" stroke="#67CDFD" stroke-width="0.3576" stroke-miterlimit="10"/>
<path d="M50.3144 40.0665L47.04 34.9641" stroke="#67CDFD" stroke-width="0.3576" stroke-miterlimit="10"/>
<path d="M54.9265 18.1842C55.7494 18.3726 56.2809 19.1431 56.0923 19.9307C55.9209 20.7012 55.098 21.1806 54.2751 21.0094C53.4522 20.821 52.9208 20.0505 53.1094 19.2629C53.2808 18.4753 54.1037 17.9959 54.9265 18.1842Z" stroke="#67CDFD" stroke-width="0.3576" stroke-miterlimit="10"/>
<path d="M47.6748 26.1116L53.4864 20.5127" stroke="#67CDFD" stroke-width="0.3576" stroke-miterlimit="10"/>
<path d="M40.6463 12.979C41.4691 13.1674 42.0006 13.9379 41.812 14.7255C41.6406 15.496 40.8177 15.9754 39.9948 15.8042C39.1719 15.6158 38.6405 14.8453 38.8291 14.0577C39.0177 13.2701 39.8234 12.7907 40.6463 12.979Z" stroke="#67CDFD" stroke-width="0.3576" stroke-miterlimit="10"/>
<path d="M43.287 24.6051L40.8184 16.0098" stroke="#67CDFD" stroke-width="0.3576" stroke-miterlimit="10"/>
<path d="M167.232 201.544C137.659 203.651 113.333 200.26 113.196 198.394C113.042 196.339 136.665 189.73 166.237 187.624C195.809 185.518 220.067 187.898 220.067 187.898L220.53 194.302C220.53 194.302 190.821 199.867 167.232 201.544Z" fill="white" stroke="#999999" stroke-width="1.4382" stroke-miterlimit="10" stroke-linejoin="round"/>
<path d="M164.268 179.8C164.268 179.8 168.142 183.361 172.222 183.549C177.845 183.823 190.702 180.93 196.754 180.861C204.177 180.776 211.12 187.111 211.12 187.111L211.652 194.662" stroke="#999999" stroke-width="1.1505" stroke-miterlimit="10" stroke-linecap="round"/>
<path d="M172.305 187.179C172.305 187.179 175.151 190.415 172.768 193.6C170.094 197.178 173.574 200.843 173.574 200.843" stroke="#999999" stroke-width="1.1505" stroke-miterlimit="10" stroke-linecap="round"/>
<path d="M167.471 187.522C167.471 187.522 170.317 190.758 167.934 193.942C165.26 197.521 168.74 201.185 168.74 201.185" stroke="#999999" stroke-width="1.1505" stroke-miterlimit="10" stroke-linecap="round"/>
<path d="M123.397 194.096L123.894 201.082C123.894 201.082 113.368 200.791 113.196 198.377C113.025 195.963 123.397 194.096 123.397 194.096Z" fill="#999999"/>
<path d="M157.324 172.882H79.2534C78.3105 172.882 77.5391 172.112 77.5391 171.17V71.0054C77.5391 70.0637 78.3105 69.2932 79.2534 69.2932H157.324C158.267 69.2932 159.038 70.0637 159.038 71.0054V171.17C159.038 172.112 158.284 172.882 157.324 172.882Z" fill="white" stroke="#67CDFD" stroke-miterlimit="10"/>
<path d="M103.528 69.2762H133.066" stroke="#999999" stroke-width="7.541" stroke-miterlimit="10" stroke-linecap="round" stroke-linejoin="round"/>
<path d="M97.373 96.6378H88.2871V105.695H97.373V96.6378Z" stroke="#999999" stroke-width="0.4751" stroke-miterlimit="10" stroke-linecap="round" stroke-linejoin="round"/>
<path d="M97.373 111.054H88.2871V120.112H97.373V111.054Z" stroke="#999999" stroke-width="0.4751" stroke-miterlimit="10" stroke-linecap="round" stroke-linejoin="round"/>
<path d="M97.373 125.488H88.2871V134.546H97.373V125.488Z" stroke="#999999" stroke-width="0.4751" stroke-miterlimit="10" stroke-linecap="round" stroke-linejoin="round"/>
<path d="M97.373 139.905H88.2871V148.963H97.373V139.905Z" stroke="#999999" stroke-width="0.4751" stroke-miterlimit="10" stroke-linecap="round" stroke-linejoin="round"/>
</g>
<defs>
<clipPath id="clip0">
<rect width="247" height="208" fill="white"/>
</clipPath>
</defs>
</svg>
