<svg width="375" height="667" viewBox="0 0 375 667" fill="none" xmlns="http://www.w3.org/2000/svg">
<rect width="375" height="667" fill="#FAFAFA"/>
<path d="M316.196 631.751C320.961 631.751 324.824 627.897 324.824 623.142C324.824 618.388 320.961 614.533 316.196 614.533C311.431 614.533 307.568 618.388 307.568 623.142C307.568 627.897 311.431 631.751 316.196 631.751Z" stroke="#9BC83F" stroke-width="0.7328" stroke-miterlimit="10"/>
<path d="M298.628 642.369C299.853 642.407 300.816 643.442 300.779 644.665C300.741 645.888 299.703 646.848 298.478 646.811C297.253 646.774 296.29 645.738 296.327 644.515C296.365 643.28 297.403 642.319 298.628 642.369Z" stroke="#9BC83F" stroke-width="0.7328" stroke-miterlimit="10"/>
<path d="M300.066 643.38L311.269 630.666" stroke="#9BC83F" stroke-width="0.7328" stroke-miterlimit="10"/>
<path d="M294.302 611.439C295.527 611.476 296.49 612.512 296.452 613.735C296.415 614.957 295.377 615.918 294.152 615.881C292.926 615.843 291.964 614.808 292.001 613.585C292.051 612.362 293.076 611.401 294.302 611.439Z" stroke="#9BC83F" stroke-width="0.7328" stroke-miterlimit="10"/>
<path d="M296.077 614.433L308.518 619.05" stroke="#9BC83F" stroke-width="0.7328" stroke-miterlimit="10"/>
<path d="M329.7 635.694C330.925 635.731 331.888 636.767 331.85 637.99C331.813 639.213 330.775 640.173 329.55 640.136C328.324 640.098 327.361 639.063 327.399 637.84C327.449 636.617 328.474 635.657 329.7 635.694Z" stroke="#9BC83F" stroke-width="0.7328" stroke-miterlimit="10"/>
<path d="M328.537 636.093L322.473 629.343" stroke="#9BC83F" stroke-width="0.7328" stroke-miterlimit="10"/>
<path d="M329.15 601.757C330.375 601.794 331.338 602.83 331.301 604.052C331.263 605.275 330.225 606.236 329 606.198C327.774 606.161 326.812 605.125 326.849 603.903C326.899 602.668 327.925 601.719 329.15 601.757Z" stroke="#9BC83F" stroke-width="0.7328" stroke-miterlimit="10"/>
<path d="M320.96 615.806L327.737 605.687" stroke="#9BC83F" stroke-width="0.7328" stroke-miterlimit="10"/>
<path d="M307.356 598.001C308.581 598.039 309.544 599.074 309.507 600.297C309.469 601.52 308.431 602.48 307.206 602.443C305.981 602.405 305.018 601.37 305.055 600.147C305.105 598.912 306.131 597.964 307.356 598.001Z" stroke="#9BC83F" stroke-width="0.7328" stroke-miterlimit="10"/>
<path d="M314.308 614.795L308.419 602.543" stroke="#9BC83F" stroke-width="0.7328" stroke-miterlimit="10"/>
<path d="M25.2538 53.7863C23.9069 53.1772 23.302 51.5916 23.9071 50.2475C24.5121 48.9035 26.0967 48.3042 27.4436 48.9134C28.7905 49.5225 29.3954 51.1081 28.7904 52.4522C28.1853 53.7962 26.6007 54.3955 25.2538 53.7863Z" stroke="#67CDFD" stroke-width="0.7328" stroke-miterlimit="10"/>
<path d="M39.6124 74.7228C38.2655 74.1136 37.6606 72.528 38.2657 71.184C38.8708 69.84 40.4554 69.2407 41.8022 69.8498C43.1491 70.459 43.7541 72.0446 43.149 73.3886C42.5439 74.7326 40.9593 75.3319 39.6124 74.7228Z" stroke="#67CDFD" stroke-width="0.7328" stroke-miterlimit="10"/>
<path d="M14.8415 73.0586C13.4946 72.4494 12.8897 70.8638 13.4947 69.5198C14.0998 68.1757 15.6844 67.5764 17.0313 68.1856C18.3782 68.7948 18.9831 70.3804 18.3697 71.7344C17.7831 73.0768 16.1985 73.6761 14.8415 73.0586Z" stroke="#67CDFD" stroke-width="0.7328" stroke-miterlimit="10"/>
<path d="M27.4241 53.3003L38.1125 70.9383C38.1781 71.0436 38.0984 71.1807 37.978 71.1824L18.3881 71.7327" stroke="#67CDFD" stroke-width="0.7328" stroke-miterlimit="10"/>
<path d="M306.567 123.561C307.7 122.618 309.402 122.761 310.348 123.904C311.296 125.034 311.154 126.731 310.009 127.672C308.876 128.615 307.174 128.472 306.228 127.329C305.283 126.187 305.435 124.505 306.567 123.561Z" stroke="#9BC83F" stroke-width="0.7328" stroke-miterlimit="10"/>
<path d="M318.792 102.017C319.925 101.074 321.627 101.217 322.573 102.36C323.521 103.49 323.379 105.187 322.234 106.128C321.101 107.072 319.399 106.929 318.453 105.786C317.508 104.643 317.66 102.961 318.792 102.017Z" stroke="#9BC83F" stroke-width="0.7328" stroke-miterlimit="10"/>
<path d="M283.51 113.112C284.642 112.168 286.345 112.312 287.291 113.454C288.238 114.584 288.097 116.282 286.952 117.223C285.819 118.166 284.116 118.023 283.171 116.88C282.223 115.75 282.375 114.068 283.51 113.112Z" stroke="#9BC83F" stroke-width="0.7328" stroke-miterlimit="10"/>
<path d="M310.35 123.891L318.371 106.155C318.419 106.044 318.319 105.933 318.207 105.966L287.839 114.444" stroke="#67CDFD" stroke-width="0.7328" stroke-miterlimit="10"/>
<path d="M347.94 415.697C348.136 414.237 349.483 413.195 350.948 413.39C352.413 413.586 353.459 414.928 353.263 416.388C353.067 417.848 351.72 418.891 350.255 418.695C348.79 418.5 347.757 417.157 347.94 415.697Z" stroke="#67CDFD" stroke-miterlimit="10"/>
<path d="M332.062 435.445C332.258 433.985 333.606 432.942 335.07 433.137C336.535 433.333 337.581 434.676 337.385 436.135C337.189 437.595 335.842 438.638 334.377 438.443C332.912 438.247 331.866 436.904 332.062 435.445Z" stroke="#67CDFD" stroke-miterlimit="10"/>
<path d="M326.399 411.331C326.596 409.871 327.943 408.828 329.408 409.024C330.872 409.219 331.919 410.562 331.722 412.022C331.526 413.481 330.179 414.524 328.714 414.329C327.25 414.146 326.216 412.804 326.399 411.331Z" stroke="#67CDFD" stroke-miterlimit="10"/>
<path d="M308.024 443.357C308.22 441.897 309.567 440.854 311.032 441.049C312.497 441.245 313.543 442.588 313.347 444.047C313.151 445.507 311.803 446.55 310.339 446.355C308.874 446.159 307.827 444.816 308.024 443.357Z" stroke="#67CDFD" stroke-miterlimit="10"/>
<path d="M349.039 417.626L335.319 432.864C335.202 432.994 335.005 432.942 334.953 432.786L328.793 414.55C328.767 414.459 328.649 414.446 328.597 414.524L312.104 441.401" stroke="#67CDFD" stroke-miterlimit="10"/>
<path d="M81.4054 528.135C81.4054 529.074 80.6338 529.843 79.6921 529.843C78.7504 529.843 77.9788 529.074 77.9788 528.135C77.9788 527.197 78.7504 526.427 79.6921 526.427C80.6338 526.441 81.4054 527.197 81.4054 528.135Z" stroke="#9BC83F" stroke-width="0.7328" stroke-miterlimit="10"/>
<path d="M65.1224 544.194C65.1224 546.201 63.4875 547.83 61.4734 547.83C59.4593 547.83 57.8245 546.201 57.8245 544.194C57.8245 542.186 59.4593 540.557 61.4734 540.557C63.5006 540.557 65.1224 542.186 65.1224 544.194Z" stroke="#9BC83F" stroke-width="0.7328" stroke-miterlimit="10"/>
<path d="M71.5181 540.961C78.2929 556.407 79.3261 570.888 73.8069 573.287C68.2877 575.698 58.3217 565.114 51.5338 549.668C44.7591 534.222 43.7259 519.741 49.2451 517.342C54.7643 514.931 64.7303 525.515 71.5181 540.961Z" stroke="#9BC83F" stroke-width="0.7328" stroke-miterlimit="10"/>
<path d="M90.1185 556.256C92.265 550.646 81.1932 541.208 65.3891 535.174C49.5849 529.141 35.033 528.798 32.8865 534.408C30.7401 540.018 41.8118 549.456 57.616 555.489C73.4202 561.522 87.9721 561.865 90.1185 556.256Z" stroke="#9BC83F" stroke-width="0.7328" stroke-miterlimit="10"/>
<path d="M66.5079 554.951C81.5191 547.163 91.4412 536.529 88.6695 531.199C85.8978 525.869 71.482 527.861 56.4707 535.648C41.4595 543.436 31.5374 554.07 34.3091 559.4C37.0808 564.73 51.4967 562.738 66.5079 554.951Z" stroke="#9BC83F" stroke-width="0.7328" stroke-miterlimit="10"/>
</svg>
