<svg width="27" height="26" viewBox="0 0 27 26" fill="none" xmlns="http://www.w3.org/2000/svg">
<g clip-path="url(#clip0)">
<path d="M22.7454 25.8375H4.25448C1.96357 25.8375 0.163574 24.05 0.163574 21.775V4.22501C0.163574 1.95001 1.96357 0.162506 4.25448 0.162506H22.7454C25.0363 0.162506 26.8363 1.95001 26.8363 4.22501V21.6938C26.8363 23.9688 25.0363 25.8375 22.7454 25.8375Z" stroke="#ACACAC" stroke-width="0.438" stroke-miterlimit="10"/>
<path d="M15.4637 16.0875C15.7092 16.25 15.8728 16.4125 16.0365 16.575C16.2001 16.7375 16.4455 16.7375 16.5274 16.4938C16.691 16.0063 16.9365 15.5188 17.3455 15.1125C17.591 14.8688 17.1819 14.4625 16.9365 14.7063C16.5274 15.1938 16.2001 15.7625 16.0365 16.3313C16.2001 16.3313 16.3637 16.25 16.5274 16.25C16.2819 15.925 16.0365 15.6813 15.791 15.5188C15.4637 15.4375 15.2183 15.925 15.4637 16.0875Z" fill="#ACACAC"/>
<path d="M9.7364 10.725H8.59094C8.42731 10.725 8.26367 10.5625 8.26367 10.4V9.2625C8.26367 9.1 8.42731 8.9375 8.59094 8.9375H9.7364C9.90004 8.9375 10.0637 9.1 10.0637 9.2625V10.4C10.0637 10.5625 9.90004 10.725 9.7364 10.725Z" stroke="#ACACAC" stroke-width="0.219" stroke-miterlimit="10"/>
<path d="M12.1092 10.725H10.9637C10.8001 10.725 10.6365 10.5625 10.6365 10.4V9.2625C10.6365 9.1 10.8001 8.9375 10.9637 8.9375H12.1092C12.2728 8.9375 12.4365 9.1 12.4365 9.2625V10.4C12.4365 10.5625 12.2728 10.725 12.1092 10.725Z" stroke="#ACACAC" stroke-width="0.219" stroke-miterlimit="10"/>
<path d="M14.4818 10.725H13.3363C13.1727 10.725 13.009 10.5625 13.009 10.4V9.2625C13.009 9.1 13.1727 8.9375 13.3363 8.9375H14.4818C14.6454 8.9375 14.809 9.1 14.809 9.2625V10.4C14.809 10.5625 14.6454 10.725 14.4818 10.725Z" stroke="#ACACAC" stroke-width="0.219" stroke-miterlimit="10"/>
<path d="M16.8546 10.725H15.7091C15.5455 10.725 15.3818 10.5625 15.3818 10.4V9.2625C15.3818 9.1 15.5455 8.9375 15.7091 8.9375H16.8546C17.0182 8.9375 17.1818 9.1 17.1818 9.2625V10.4C17.1818 10.5625 17.0182 10.725 16.8546 10.725Z" stroke="#ACACAC" stroke-width="0.219" stroke-miterlimit="10"/>
<path d="M19.2274 10.725H18.0819C17.9183 10.725 17.7546 10.5625 17.7546 10.4V9.2625C17.7546 9.1 17.9183 8.9375 18.0819 8.9375H19.2274C19.391 8.9375 19.5546 9.1 19.5546 9.2625V10.4C19.5546 10.5625 19.391 10.725 19.2274 10.725Z" stroke="#ACACAC" stroke-width="0.219" stroke-miterlimit="10"/>
<path d="M21.5999 10.725H20.4545C20.2908 10.725 20.1272 10.5625 20.1272 10.4V9.2625C20.1272 9.1 20.2908 8.9375 20.4545 8.9375H21.5999C21.7636 8.9375 21.9272 9.1 21.9272 9.2625V10.4C21.9272 10.5625 21.7636 10.725 21.5999 10.725Z" stroke="#ACACAC" stroke-width="0.219" stroke-miterlimit="10"/>
<path d="M23.9727 10.725H22.8273C22.6636 10.725 22.5 10.5625 22.5 10.4V9.2625C22.5 9.1 22.6636 8.9375 22.8273 8.9375H23.9727C24.1364 8.9375 24.3 9.1 24.3 9.2625V10.4C24.3 10.5625 24.1364 10.725 23.9727 10.725Z" stroke="#ACACAC" stroke-width="0.219" stroke-miterlimit="10"/>
<path d="M9.7364 13.8937H8.59094C8.42731 13.8937 8.26367 13.7312 8.26367 13.5687V12.4312C8.26367 12.2687 8.42731 12.1062 8.59094 12.1062H9.7364C9.90004 12.1062 10.0637 12.2687 10.0637 12.4312V13.5687C10.0637 13.7312 9.90004 13.8937 9.7364 13.8937Z" stroke="#ACACAC" stroke-width="0.219" stroke-miterlimit="10"/>
<path d="M12.1092 13.8937H10.9637C10.8001 13.8937 10.6365 13.7312 10.6365 13.5687V12.4312C10.6365 12.2687 10.8001 12.1062 10.9637 12.1062H12.1092C12.2728 12.1062 12.4365 12.2687 12.4365 12.4312V13.5687C12.4365 13.7312 12.2728 13.8937 12.1092 13.8937Z" stroke="#ACACAC" stroke-width="0.219" stroke-miterlimit="10"/>
<path d="M14.4818 13.8937H13.3363C13.1727 13.8937 13.009 13.7312 13.009 13.5687V12.4312C13.009 12.2687 13.1727 12.1062 13.3363 12.1062H14.4818C14.6454 12.1062 14.809 12.2687 14.809 12.4312V13.5687C14.809 13.7312 14.6454 13.8937 14.4818 13.8937Z" stroke="#ACACAC" stroke-width="0.219" stroke-miterlimit="10"/>
<path d="M16.8546 13.8937H15.7091C15.5455 13.8937 15.3818 13.7312 15.3818 13.5687V12.4312C15.3818 12.2687 15.5455 12.1062 15.7091 12.1062H16.8546C17.0182 12.1062 17.1818 12.2687 17.1818 12.4312V13.5687C17.1818 13.7312 17.0182 13.8937 16.8546 13.8937Z" stroke="#ACACAC" stroke-width="0.219" stroke-miterlimit="10"/>
<path d="M19.2274 13.8937H18.0819C17.9183 13.8937 17.7546 13.7312 17.7546 13.5687V12.4312C17.7546 12.2687 17.9183 12.1062 18.0819 12.1062H19.2274C19.391 12.1062 19.5546 12.2687 19.5546 12.4312V13.5687C19.5546 13.7312 19.391 13.8937 19.2274 13.8937Z" stroke="#ACACAC" stroke-width="0.219" stroke-miterlimit="10"/>
<path d="M21.5999 13.8937H20.4545C20.2908 13.8937 20.1272 13.7312 20.1272 13.5687V12.4312C20.1272 12.2687 20.2908 12.1062 20.4545 12.1062H21.5999C21.7636 12.1062 21.9272 12.2687 21.9272 12.4312V13.5687C21.9272 13.7312 21.7636 13.8937 21.5999 13.8937Z" stroke="#ACACAC" stroke-width="0.219" stroke-miterlimit="10"/>
<path d="M23.9727 13.8937H22.8273C22.6636 13.8937 22.5 13.7312 22.5 13.5687V12.4312C22.5 12.2687 22.6636 12.1062 22.8273 12.1062H23.9727C24.1364 12.1062 24.3 12.2687 24.3 12.4312V13.5687C24.3 13.7312 24.1364 13.8937 23.9727 13.8937Z" stroke="#ACACAC" stroke-width="0.219" stroke-miterlimit="10"/>
<path d="M9.7364 17.0625H8.59094C8.42731 17.0625 8.26367 16.9 8.26367 16.7375V15.6C8.26367 15.4375 8.42731 15.275 8.59094 15.275H9.7364C9.90004 15.275 10.0637 15.4375 10.0637 15.6V16.7375C10.0637 16.9 9.90004 17.0625 9.7364 17.0625Z" stroke="#ACACAC" stroke-width="0.219" stroke-miterlimit="10"/>
<path d="M12.1092 17.0625H10.9637C10.8001 17.0625 10.6365 16.9 10.6365 16.7375V15.6C10.6365 15.4375 10.8001 15.275 10.9637 15.275H12.1092C12.2728 15.275 12.4365 15.4375 12.4365 15.6V16.7375C12.4365 16.9 12.2728 17.0625 12.1092 17.0625Z" stroke="#ACACAC" stroke-width="0.219" stroke-miterlimit="10"/>
<path d="M14.4818 17.0625H13.3363C13.1727 17.0625 13.009 16.9 13.009 16.7375V15.6C13.009 15.4375 13.1727 15.275 13.3363 15.275H14.4818C14.6454 15.275 14.809 15.4375 14.809 15.6V16.7375C14.809 16.9 14.6454 17.0625 14.4818 17.0625Z" stroke="#ACACAC" stroke-width="0.219" stroke-miterlimit="10"/>
<path d="M16.8546 17.0625H15.7091C15.5455 17.0625 15.3818 16.9 15.3818 16.7375V15.6C15.3818 15.4375 15.5455 15.275 15.7091 15.275H16.8546C17.0182 15.275 17.1818 15.4375 17.1818 15.6V16.7375C17.1818 16.9 17.0182 17.0625 16.8546 17.0625Z" stroke="#ACACAC" stroke-width="0.219" stroke-miterlimit="10"/>
<path d="M19.2274 17.0625H18.0819C17.9183 17.0625 17.7546 16.9 17.7546 16.7375V15.6C17.7546 15.4375 17.9183 15.275 18.0819 15.275H19.2274C19.391 15.275 19.5546 15.4375 19.5546 15.6V16.7375C19.5546 16.9 19.391 17.0625 19.2274 17.0625Z" stroke="#ACACAC" stroke-width="0.219" stroke-miterlimit="10"/>
<path d="M21.5999 17.0625H20.4545C20.2908 17.0625 20.1272 16.9 20.1272 16.7375V15.6C20.1272 15.4375 20.2908 15.275 20.4545 15.275H21.5999C21.7636 15.275 21.9272 15.4375 21.9272 15.6V16.7375C21.9272 16.9 21.7636 17.0625 21.5999 17.0625Z" stroke="#ACACAC" stroke-width="0.219" stroke-miterlimit="10"/>
<path d="M23.9727 17.0625H22.8273C22.6636 17.0625 22.5 16.9 22.5 16.7375V15.6C22.5 15.4375 22.6636 15.275 22.8273 15.275H23.9727C24.1364 15.275 24.3 15.4375 24.3 15.6V16.7375C24.3 16.9 24.1364 17.0625 23.9727 17.0625Z" stroke="#ACACAC" stroke-width="0.219" stroke-miterlimit="10"/>
<path d="M9.7364 20.2313H8.59094C8.42731 20.2313 8.26367 20.0688 8.26367 19.9063V18.7688C8.26367 18.6063 8.42731 18.4438 8.59094 18.4438H9.7364C9.90004 18.4438 10.0637 18.6063 10.0637 18.7688V19.9063C10.0637 20.0688 9.90004 20.2313 9.7364 20.2313Z" stroke="#ACACAC" stroke-width="0.219" stroke-miterlimit="10"/>
<path d="M12.1092 20.2313H10.9637C10.8001 20.2313 10.6365 20.0688 10.6365 19.9063V18.7688C10.6365 18.6063 10.8001 18.4438 10.9637 18.4438H12.1092C12.2728 18.4438 12.4365 18.6063 12.4365 18.7688V19.9063C12.4365 20.0688 12.2728 20.2313 12.1092 20.2313Z" stroke="#ACACAC" stroke-width="0.219" stroke-miterlimit="10"/>
<path d="M14.4818 20.2313H13.3363C13.1727 20.2313 13.009 20.0688 13.009 19.9063V18.7688C13.009 18.6063 13.1727 18.4438 13.3363 18.4438H14.4818C14.6454 18.4438 14.809 18.6063 14.809 18.7688V19.9063C14.809 20.0688 14.6454 20.2313 14.4818 20.2313Z" stroke="#ACACAC" stroke-width="0.219" stroke-miterlimit="10"/>
<path d="M16.8546 20.2313H15.7091C15.5455 20.2313 15.3818 20.0688 15.3818 19.9063V18.7688C15.3818 18.6063 15.5455 18.4438 15.7091 18.4438H16.8546C17.0182 18.4438 17.1818 18.6063 17.1818 18.7688V19.9063C17.1818 20.0688 17.0182 20.2313 16.8546 20.2313Z" stroke="#ACACAC" stroke-width="0.219" stroke-miterlimit="10"/>
<path d="M19.2274 20.2313H18.0819C17.9183 20.2313 17.7546 20.0688 17.7546 19.9063V18.7688C17.7546 18.6063 17.9183 18.4438 18.0819 18.4438H19.2274C19.391 18.4438 19.5546 18.6063 19.5546 18.7688V19.9063C19.5546 20.0688 19.391 20.2313 19.2274 20.2313Z" stroke="#ACACAC" stroke-width="0.219" stroke-miterlimit="10"/>
<path d="M21.5999 20.2313H20.4545C20.2908 20.2313 20.1272 20.0688 20.1272 19.9063V18.7688C20.1272 18.6063 20.2908 18.4438 20.4545 18.4438H21.5999C21.7636 18.4438 21.9272 18.6063 21.9272 18.7688V19.9063C21.9272 20.0688 21.7636 20.2313 21.5999 20.2313Z" stroke="#ACACAC" stroke-width="0.219" stroke-miterlimit="10"/>
<path d="M23.9727 20.2313H22.8273C22.6636 20.2313 22.5 20.0688 22.5 19.9063V18.7688C22.5 18.6063 22.6636 18.4438 22.8273 18.4438H23.9727C24.1364 18.4438 24.3 18.6063 24.3 18.7688V19.9063C24.3 20.0688 24.1364 20.2313 23.9727 20.2313Z" stroke="#ACACAC" stroke-width="0.219" stroke-miterlimit="10"/>
<path d="M21.3545 3.25001H5.64539C5.48175 3.25001 5.31812 3.08751 5.31812 2.92501V0.487506C5.31812 0.325006 5.48175 0.162506 5.64539 0.162506H21.3545C21.5181 0.162506 21.6818 0.325006 21.6818 0.487506V2.92501C21.6818 3.08751 21.5181 3.25001 21.3545 3.25001Z" stroke="#ACACAC" stroke-width="0.285" stroke-miterlimit="10"/>
<path d="M4.74537 17.875H3.59992C3.10901 17.875 2.78174 17.55 2.78174 17.0625V11.1313C2.78174 10.6438 3.10901 10.3188 3.59992 10.3188H4.74537C5.15447 10.3188 5.56356 10.6438 5.56356 11.1313V17.1438C5.56356 17.4688 5.15447 17.875 4.74537 17.875Z" fill="white" stroke="#ACACAC" stroke-width="0.438" stroke-miterlimit="10"/>
<path d="M4.09082 10.3187H4.25446L4.17264 3.65625L4.09082 10.3187Z" fill="#ACACAC"/>
<path d="M4.33631 17.875H4.00903V22.3438H4.33631V17.875Z" fill="#ACACAC"/>
<path d="M4.66355 22.5875H3.76355C3.59992 22.5875 3.43628 22.425 3.43628 22.2625C3.43628 22.1 3.59992 21.9375 3.76355 21.9375H4.66355C4.82719 21.9375 4.99082 22.1 4.99082 22.2625C4.90901 22.5062 4.82719 22.5875 4.66355 22.5875Z" fill="#ACACAC"/>
</g>
<defs>
<clipPath id="clip0">
<rect width="27" height="26" fill="white"/>
</clipPath>
</defs>
</svg>
