<svg width="16" height="26" viewBox="0 0 16 26" fill="none" xmlns="http://www.w3.org/2000/svg">
<path d="M15.3978 9.65566C15.5457 9.04895 15.6197 8.42743 15.6197 7.80592C15.6197 3.50711 12.1141 0 7.80983 0C3.50555 0 0 3.50711 0 7.81332C0 8.43483 0.0739561 9.05635 0.22187 9.66306C0.428948 10.9283 0.717381 11.9493 1.07237 12.704C1.84152 14.317 5.06603 19.6369 6.55256 22.0637C4.54834 22.3227 3.61648 23.181 3.61648 23.9949C3.61648 24.9641 4.92551 26 7.80983 26C10.6867 26 12.0032 24.9567 12.0032 23.9949C12.0032 23.181 11.0713 22.3227 9.06709 22.0637C10.5462 19.6369 13.7781 14.317 14.5473 12.704C14.9023 11.9493 15.1907 10.9283 15.3978 9.65566ZM10.7903 23.9875C10.7089 24.2168 9.70312 24.7866 7.80983 24.7866C5.89435 24.7866 4.88854 24.202 4.82198 23.9949C4.87375 23.7951 5.70206 23.2994 7.25515 23.2032C7.26994 23.2328 7.28474 23.255 7.29213 23.2698C7.40307 23.4474 7.59535 23.5583 7.80243 23.5583C8.00951 23.5583 8.20919 23.4474 8.31273 23.2698C8.32013 23.255 8.33492 23.2328 8.34971 23.2032C9.89541 23.2994 10.7237 23.7803 10.7903 23.9875ZM14.2219 9.3967C14.2145 9.4115 14.2145 9.4263 14.2145 9.44109C14.0296 10.5879 13.7633 11.535 13.4601 12.1787C12.6836 13.8065 9.14844 19.6147 7.81722 21.7974C6.47861 19.6147 2.94348 13.8065 2.17433 12.1787C1.8711 11.535 1.60486 10.5879 1.41997 9.44109C1.41997 9.4263 1.41257 9.4115 1.41257 9.3967C1.28685 8.87877 1.22028 8.34604 1.22028 7.81332C1.22028 4.17302 4.17855 1.20603 7.82462 1.20603C11.4633 1.20603 14.429 4.16562 14.429 7.81332C14.4142 8.34604 14.3476 8.87877 14.2219 9.3967Z" fill="#ACACAC"/>
<path d="M7.80956 3.41821C5.50211 3.41821 3.61621 5.29755 3.61621 7.61343C3.61621 9.92191 5.49471 11.8087 7.80956 11.8087C10.117 11.8087 12.0029 9.92931 12.0029 7.61343C12.0029 5.29755 10.1244 3.41821 7.80956 3.41821ZM7.80956 10.5952C6.16032 10.5952 4.8291 9.256 4.8291 7.61343C4.8291 5.96346 6.16772 4.62425 7.80956 4.62425C9.45879 4.62425 10.7974 5.96346 10.7974 7.61343C10.7974 9.256 9.45879 10.5952 7.80956 10.5952Z" fill="#ACACAC"/>
</svg>
