<svg width="61" height="55" viewBox="0 0 61 55" fill="none" xmlns="http://www.w3.org/2000/svg">
<path d="M3 15C3 13.3431 4.34315 12 6 12H55C56.1046 12 57 12.8954 57 14V29C57 30.6569 55.6569 32 54 32H6C4.34315 32 3 30.6569 3 29V15Z" stroke="#A8E3F1" stroke-width="2"/>
<path d="M34 33L34 29L30.5 29L27 29L27 33" stroke="#A8E3F1" stroke-width="3" stroke-linejoin="round"/>
<path d="M45.3057 9.69536V6.94348C45.3057 3.11636 41.7338 0 37.3235 0H23.4547C19.0627 0 15.4725 3.11636 15.4725 6.94348V9.69536H6.85236C3.07992 9.69536 0 12.7753 0 16.5477V47.9483C0 51.7207 3.07992 54.8006 6.85236 54.8006H53.9076C57.6801 54.8006 60.76 51.7207 60.76 47.9483V16.5477C60.76 12.7753 57.6801 9.69536 53.9076 9.69536H45.3057ZM57.9352 47.9483C57.9352 50.1716 56.131 51.9759 53.9076 51.9759H6.85236C4.62899 51.9759 2.82477 50.1716 2.82477 47.9483V16.5477C2.82477 14.3243 4.62899 12.5201 6.85236 12.5201H53.9076C56.131 12.5201 57.9352 14.3243 57.9352 16.5477V47.9483ZM23.4365 2.82478H37.3053C40.1483 2.82478 42.4627 4.66544 42.4627 6.94348V9.69536H38.344V8.51077C38.344 6.25095 36.2847 4.41029 33.7515 4.41029H27.0085C24.4753 4.41029 22.416 6.25095 22.416 8.51077V9.71358H18.2973V6.94348C18.279 4.66544 20.5935 2.82478 23.4365 2.82478ZM35.5375 9.69536H25.2407V8.51077C25.2407 7.81825 26.0608 7.23507 27.0267 7.23507H33.7697C34.7356 7.23507 35.5557 7.81825 35.5557 8.51077V9.69536H35.5375Z" fill="#A8E3F1"/>
</svg>
