<svg width="61" height="55" viewBox="0 0 61 55" fill="none" xmlns="http://www.w3.org/2000/svg">
<path d="M2 15C2 12.7909 3.79086 11 6 11H55C56.6569 11 58 12.3431 58 14V29C58 31.2091 56.2091 33 54 33H6C3.79086 33 2 31.2091 2 29V15Z" fill="url(#paint0_linear)"/>
<path d="M34 33L34 29L30.5 29L27 29L27 33" stroke="white" stroke-width="3" stroke-linejoin="round"/>
<path d="M45.3057 9.69536V6.94348C45.3057 3.11636 41.7338 0 37.3235 0H23.4547C19.0627 0 15.4725 3.11636 15.4725 6.94348V9.69536H6.85236C3.07992 9.69536 0 12.7753 0 16.5477V47.9483C0 51.7207 3.07992 54.8006 6.85236 54.8006H53.9076C57.6801 54.8006 60.76 51.7207 60.76 47.9483V16.5477C60.76 12.7753 57.6801 9.69536 53.9076 9.69536H45.3057ZM57.9352 47.9483C57.9352 50.1716 56.131 51.9759 53.9076 51.9759H6.85236C4.62899 51.9759 2.82477 50.1716 2.82477 47.9483V16.5477C2.82477 14.3243 4.62899 12.5201 6.85236 12.5201H53.9076C56.131 12.5201 57.9352 14.3243 57.9352 16.5477V47.9483ZM23.4365 2.82478H37.3053C40.1483 2.82478 42.4627 4.66544 42.4627 6.94348V9.69536H38.344V8.51077C38.344 6.25095 36.2847 4.41029 33.7515 4.41029H27.0085C24.4753 4.41029 22.416 6.25095 22.416 8.51077V9.71358H18.2973V6.94348C18.279 4.66544 20.5935 2.82478 23.4365 2.82478ZM35.5375 9.69536H25.2407V8.51077C25.2407 7.81825 26.0608 7.23507 27.0267 7.23507H33.7697C34.7356 7.23507 35.5557 7.81825 35.5557 8.51077V9.69536H35.5375Z" fill="url(#paint1_linear)"/>
<defs>
<linearGradient id="paint0_linear" x1="2.7" y1="11.5" x2="49.8159" y2="45.7026" gradientUnits="userSpaceOnUse">
<stop stop-color="#9BC83F"/>
<stop offset="0.552083" stop-color="#67CDFD"/>
<stop offset="1" stop-color="#9BC83F"/>
</linearGradient>
<linearGradient id="paint1_linear" x1="4.5" y1="12" x2="57" y2="53.5" gradientUnits="userSpaceOnUse">
<stop stop-color="#9BC83F"/>
<stop offset="0.520833" stop-color="#67CDFD"/>
<stop offset="1" stop-color="#9BC83F"/>
</linearGradient>
</defs>
</svg>
