<svg width="367" height="287" viewBox="0 0 367 287" fill="none" xmlns="http://www.w3.org/2000/svg">
<path d="M271.497 273.271C315.312 273.271 351.947 235.844 354.017 187.91C354.069 186.816 354.095 185.762 354.095 184.778C354.095 156.611 350.253 132.48 342.568 112.467C334.884 92.4537 324.147 76.0655 310.448 63.2067C296.658 50.4573 280.151 40.9362 260.954 34.6573C241.744 28.4741 220.27 25.3415 196.609 25.3415C167.193 25.3415 142.226 29.5548 121.709 38.0909C101.192 46.627 84.2586 57.5159 70.8179 70.5663C57.3643 83.7261 46.9765 98.0487 39.6417 113.452C32.2164 128.855 26.809 143.479 23.2257 157.309C19.7329 171.043 17.6373 183.218 17.0293 193.71C17.0034 194.08 16.9905 194.517 16.9775 194.983C15.671 237.854 47.3258 273.271 86.4837 273.271H271.497Z" fill="#EAE9EF"/>
<g opacity="0.15">
<path opacity="0.15" d="M5.05161 154.395C7.59289 154.395 9.65302 152.339 9.65302 149.803C9.65302 147.267 7.59289 145.212 5.05161 145.212C2.51032 145.212 0.450195 147.267 0.450195 149.803C0.450195 152.339 2.51032 154.395 5.05161 154.395Z" stroke="#2B83AF" stroke-width="0.7328" stroke-miterlimit="10"/>
<path opacity="0.15" d="M242.212 10.4853C244.753 10.4853 246.813 8.42965 246.813 5.89382C246.813 3.35799 244.753 1.30229 242.212 1.30229C239.67 1.30229 237.61 3.35799 237.61 5.89382C237.61 8.42965 239.67 10.4853 242.212 10.4853Z" stroke="#2B83AF" stroke-width="0.7328" stroke-miterlimit="10"/>
<path opacity="0.15" d="M366.55 159.747C366.55 162.28 364.487 164.339 361.949 164.339C359.411 164.339 357.348 162.28 357.348 159.747C357.348 157.215 359.411 155.156 361.949 155.156C364.487 155.156 366.55 157.215 366.55 159.747Z" stroke="#2B83AF" stroke-width="0.7328" stroke-miterlimit="10"/>
<path opacity="0.15" d="M116.548 27.5788C116.548 28.7766 115.573 29.7373 114.385 29.7373C113.184 29.7373 112.222 28.7641 112.222 27.5788C112.222 26.381 113.197 25.4203 114.385 25.4203C115.573 25.4078 116.548 26.381 116.548 27.5788Z" stroke="#2B83AF" stroke-width="0.7328" stroke-miterlimit="10"/>
<path opacity="0.15" d="M347.107 230.904C348.301 230.904 349.27 229.937 349.27 228.745C349.27 227.553 348.301 226.586 347.107 226.586C345.912 226.586 344.943 227.553 344.943 228.745C344.943 229.937 345.912 230.904 347.107 230.904Z" stroke="#2B83AF" stroke-width="0.7328" stroke-miterlimit="10"/>
<path opacity="0.15" d="M82.6007 190.503C82.6007 191.701 81.6255 192.662 80.4376 192.662C79.2372 192.662 78.2744 191.688 78.2744 190.503C78.2744 189.305 79.2497 188.345 80.4376 188.345C81.6255 188.345 82.6007 189.305 82.6007 190.503Z" stroke="#2B83AF" stroke-width="0.7328" stroke-miterlimit="10"/>
<path opacity="0.15" d="M336.341 56.7C336.341 57.8978 335.366 58.8586 334.178 58.8586C332.977 58.8586 332.015 57.8854 332.015 56.7C332.015 55.5022 332.99 54.5415 334.178 54.5415C335.366 54.5415 336.341 55.5022 336.341 56.7Z" stroke="#2B83AF" stroke-width="0.7328" stroke-miterlimit="10"/>
</g>
<path d="M225.494 60.9173C225.606 41.2036 209.664 25.1458 189.933 25.0335C166.488 24.9087 154.06 41.8774 146.67 57.1367C132.503 48.59 113.697 41.2785 94.4788 53.5933C76.9984 64.7851 73.8475 82.6022 74.5227 98.5229C59.6431 96.9258 40.7623 99.4961 28.4961 119.372C18.1429 136.166 23.3945 158.138 40.2121 168.469C42.6129 169.954 45.1262 171.101 47.7019 171.962C56.0045 174.72 64.9072 174.271 72.7471 171.014C86.4888 175.194 114.935 183.778 137.304 161.557C144.006 154.894 147.37 147.37 148.82 139.622C156.135 141.406 164 141.606 172.315 139.023C193.572 132.41 201.262 112.697 207.451 96.8634C208.251 94.8297 209.264 92.2095 210.202 89.9761C219.392 83.5879 225.431 72.97 225.494 60.9173Z" fill="#342027"/>
<path d="M176.154 35.0525C176.154 35.0525 194.535 21.1781 217.505 39.6815L176.154 35.0525Z" fill="#342027"/>
<path d="M167.001 47.0304C171.478 37.9097 179.805 32.0455 190.371 32.3575C205.188 32.7942 214.028 41.0789 218.167 56.6876C219.467 61.6035 219.755 67.1558 219.292 72.6831C221.23 72.9076 222.693 73.9307 223.556 75.3157C225.769 78.8841 222.843 82.2778 218.642 82.4525C218.242 82.465 217.804 82.49 217.354 82.5024C215.416 89.7765 212.328 97.35 208.727 100.993L210.727 141.781C211.115 149.803 206.576 157.377 199.161 160.496C196.96 161.419 194.897 162.143 192.972 162.679C178.817 166.622 165.326 154.47 167.214 139.921L172.415 99.7706C172.415 99.7706 167.564 93.9438 165.076 81.9534C164.713 81.916 164.338 81.8786 164 81.8412C159.824 81.392 157.211 77.7986 159.662 74.3924C160.549 73.1572 161.962 72.2838 163.725 72.0966C163.55 68.079 163.638 62.4395 164.188 57.5485C164.601 53.9302 165.388 50.2994 167.001 47.0304Z" fill="#E6A19A"/>
<path d="M208.726 100.993C198.611 108.729 188.22 112.46 172.415 99.783C172.415 99.783 187.845 120.008 209.301 112.622L208.726 100.993Z" fill="#D07B79"/>
<path d="M198.124 33.4305C198.124 33.4305 179.894 68.6904 158.725 66.8813C158.725 66.8813 165.152 22.5007 198.124 33.4305Z" fill="#342027"/>
<path d="M198.123 33.4305C198.123 33.4305 200.386 57.0993 223.331 70.3998C223.318 70.3998 228.782 35.589 198.123 33.4305Z" fill="#342027"/>
<path d="M161.812 75.8272C162.163 75.4529 162.65 75.2533 163.188 75.2034C163.726 75.1535 164.326 75.3656 164.751 75.7649C165.163 76.1766 165.364 76.7006 165.451 77.1997C165.501 77.6988 165.451 78.1979 165.264 78.6595C165.001 78.2103 164.838 77.8111 164.651 77.4368C164.438 77.0874 164.263 76.7505 164.013 76.526C163.551 76.0768 162.813 75.9021 161.812 75.8272Z" fill="black"/>
<path d="M221.456 77.1997C220.456 77.2871 219.718 77.4493 219.268 77.9109C219.018 78.1355 218.843 78.4724 218.63 78.8217C218.443 79.196 218.28 79.6078 218.018 80.0445C217.83 79.5828 217.768 79.0837 217.83 78.5847C217.918 78.0856 218.105 77.5615 218.53 77.1498C218.955 76.7505 219.556 76.5384 220.093 76.5883C220.618 76.6258 221.106 76.8379 221.456 77.1997Z" fill="black"/>
<path d="M202.187 72.97C202.149 74.1928 202.85 75.2159 203.762 75.2408C204.675 75.2658 205.438 74.3051 205.488 73.0823C205.525 71.8596 204.825 70.8365 203.912 70.8115C203 70.7741 202.237 71.7473 202.187 72.97Z" fill="black"/>
<path d="M178.493 72.1715C178.455 73.3942 179.155 74.4174 180.068 74.4423C180.981 74.4673 181.744 73.5065 181.794 72.2838C181.831 71.061 181.131 70.0379 180.218 70.013C179.293 69.988 178.53 70.9487 178.493 72.1715Z" fill="black"/>
<path d="M196.611 85.3846C196.611 85.3846 191.022 95.8029 185.67 85.1351L196.611 85.3846Z" fill="#F4FFF7"/>
<path d="M192.297 79.7325C190.872 79.1087 189.596 78.2603 188.371 77.3619L187.721 76.8753L188.408 76.4636C189.209 75.977 189.859 75.1535 190.434 74.2676C191.009 73.3818 191.522 72.4335 192.022 71.4353C191.972 71.9843 191.834 72.5208 191.709 73.0698C191.559 73.6063 191.372 74.1304 191.134 74.6419C190.672 75.665 190.021 76.6632 188.971 77.3744L189.009 76.476C190.259 77.3494 191.472 78.2727 192.51 79.4331C192.585 79.508 192.572 79.6327 192.497 79.6951C192.435 79.745 192.36 79.7575 192.297 79.7325Z" fill="black"/>
<path d="M175.054 65.1345C175.329 64.4233 175.829 63.8119 176.442 63.3253C177.054 62.8387 177.83 62.4894 178.68 62.427C179.518 62.3646 180.405 62.6141 181.031 63.1382C181.693 63.6123 182.118 64.2861 182.393 64.9848C182.043 64.8101 181.756 64.5855 181.456 64.4108C181.131 64.2611 180.868 64.049 180.555 63.9617C179.968 63.6996 179.368 63.5998 178.767 63.6497C177.554 63.7121 176.354 64.3859 175.054 65.1345Z" fill="black"/>
<path d="M209.052 63.0384C207.726 62.3272 206.513 61.6908 205.3 61.6534C204.7 61.616 204.113 61.7407 203.525 62.0152C203.212 62.1151 202.95 62.3396 202.637 62.4894C202.337 62.6765 202.062 62.9011 201.712 63.0883C201.962 62.3771 202.375 61.6908 203.025 61.2042C203.637 60.6677 204.513 60.3932 205.35 60.4307C206.201 60.4806 206.988 60.7925 207.614 61.2666C208.239 61.7407 208.752 62.3396 209.052 63.0384Z" fill="black"/>
<path d="M168.326 126.097C168.326 126.097 185.457 138.636 210.577 125.523L225.419 127.806L255.378 284.08L124.601 284.654L152.897 130.09L168.326 126.097Z" fill="#63BDE8"/>
<path d="M143.581 132.772C135.616 136.079 122.637 142.903 113.359 156.578C97.6795 179.673 71.7841 227.073 78.211 275.721L107.057 285.715L153.634 285.066L161.211 127.894C161.211 127.894 150.146 130.052 143.581 132.772Z" fill="#FDFFF8"/>
<path d="M218.892 126.895L221.142 285.503L268.532 283.881L258.129 176.105C257.266 167.496 252.439 154.769 248.663 145.811C244.512 135.979 235.484 128.879 224.868 127.594C224.793 127.582 224.731 127.582 224.656 127.569L218.892 126.895Z" fill="#FDFFF8"/>
<path opacity="0.11" d="M213.133 146.952C216.422 133.176 207.898 119.348 194.092 116.066C180.287 112.783 166.429 121.29 163.14 135.065C159.85 148.841 168.375 162.669 182.18 165.951C195.985 169.234 209.843 160.727 213.133 146.952Z" fill="white"/>
<path d="M180.517 155.318L178.104 194.196C177.704 200.672 186.756 203.205 189.432 197.291C189.82 196.442 190.07 195.531 190.132 194.596L192.908 154.482C188.782 154.744 184.656 155.019 180.517 155.318Z" fill="#F9401D"/>
<path d="M194.671 127.819L190.145 194.596C190.12 195.02 190.07 195.432 190.007 195.831C188.895 203.255 177.641 201.832 178.104 194.346L182.28 127.083" stroke="white" stroke-width="1.0697" stroke-miterlimit="10" stroke-linecap="round"/>
<path d="M143.681 202.044C143.681 202.044 161.749 191.277 166.037 180.584C170.326 169.904 180.742 159.111 182.493 162.405C183.48 164.264 172.077 181.769 176.566 180.746C181.055 179.723 190.545 166.934 192.171 162.417C192.171 162.417 194.609 161.494 193.821 169.305C193.821 169.305 196.547 168.406 195.446 173.559C195.446 173.559 198.672 173.584 197.009 178.388C197.009 178.388 199.648 178.363 195.847 187.047C192.045 195.731 187.144 200.797 179.604 205.9L159.886 224.403L143.681 202.044Z" fill="#83D6FC"/>
<path d="M190.033 191.876C191.258 191.214 192.021 190.029 192.684 188.894C193.409 187.646 194.046 186.361 194.597 185.051C195.497 182.855 196.06 180.696 197.122 178.588C197.185 178.463 197.022 178.375 196.947 178.45C195.434 179.873 195.034 182.543 194.222 184.389C193.659 185.675 193.021 186.935 192.296 188.132C191.558 189.33 190.795 190.516 189.82 191.514C189.658 191.701 189.783 192.013 190.033 191.876Z" fill="#6FA2B0"/>
<path d="M188.332 187.396C189.558 186.735 190.32 185.55 190.983 184.414C191.708 183.167 192.346 181.881 192.896 180.571C193.796 178.375 194.359 176.217 195.422 174.108C195.484 173.984 195.322 173.896 195.247 173.971C193.734 175.393 193.334 178.064 192.521 179.91C191.958 181.195 191.321 182.455 190.595 183.653C189.858 184.851 189.095 186.036 188.12 187.034C187.945 187.222 188.082 187.546 188.332 187.396Z" fill="#6FA2B0"/>
<path d="M186.381 182.693C187.607 182.044 188.394 180.871 189.07 179.748C189.807 178.513 190.47 177.24 191.033 175.93C191.958 173.747 192.558 171.6 193.646 169.492C193.709 169.367 193.558 169.28 193.471 169.355C191.945 170.752 191.508 173.422 190.67 175.269C190.095 176.541 189.432 177.802 188.694 178.987C187.944 180.172 187.169 181.345 186.181 182.331C186.006 182.518 186.131 182.842 186.381 182.693Z" fill="#6FA2B0"/>
<path d="M198.522 118.261L180.504 117.176L179.329 127.12L198.01 128.255L198.522 118.261Z" fill="#F4FFF7"/>
<path d="M144.931 195.382L169.589 227.223C169.589 227.223 142.418 280.487 107.045 285.702C73.0844 290.718 50.7276 267.76 144.931 195.382Z" fill="#FDFFF8"/>
<path d="M83.0001 251.341C87.814 246.537 92.553 241.384 97.517 236.531C102.931 231.228 108.633 226.187 114.485 221.384C124.238 213.411 133.903 206.262 145.157 200.447C145.794 200.11 145.819 199.749 145.294 199.961C140.518 201.745 135.191 204.802 130.039 208.308C124.888 211.814 119.936 215.744 115.673 219.125C103.769 228.545 92.3779 239.014 82.7 250.655C81.8622 251.665 81.9622 252.364 83.0001 251.341Z" fill="#6FA2B0"/>
<path d="M88.6015 239.338C89.6893 239.375 90.5646 238.864 91.4523 238.39C92.4151 237.878 93.4029 237.392 94.3407 236.818C95.9037 235.869 97.2666 234.709 99.1047 234.372C99.2047 234.347 99.1172 234.073 99.0047 234.023C97.0541 233.187 95.6036 234.996 94.2282 235.732C92.3026 236.768 90.202 237.466 88.3764 238.702C88.2138 238.814 88.3764 239.338 88.6015 239.338Z" fill="#6FA2B0"/>
<path d="M95.3535 286.988C103.544 287.1 111.896 284.817 119.436 281.323C127.701 277.517 135.303 272.29 141.83 266.064C147.294 260.898 151.933 255.234 156.172 249.32C160.411 243.405 164.262 237.242 168.101 230.804C168.538 230.08 168.401 229.718 167.988 230.267C164.425 235.071 160.649 241.16 156.46 247.111C152.296 253.075 147.695 258.927 143.143 263.406C136.829 269.707 129.476 275.047 121.424 279.052C113.397 283.057 104.631 285.628 95.7286 286.289C94.1656 286.414 93.6155 286.988 95.3535 286.988Z" fill="#6FA2B0"/>
<path d="M159.111 152.361L170.802 147.495" stroke="white" stroke-width="0.848" stroke-miterlimit="10"/>
<path d="M158.336 132.76L171.002 132.647" stroke="white" stroke-width="0.848" stroke-miterlimit="10"/>
<path d="M160.637 111.624L170.677 119.334" stroke="white" stroke-width="0.848" stroke-miterlimit="10"/>
<path d="M214.665 114.506L202.974 119.372" stroke="white" stroke-width="0.848" stroke-miterlimit="10"/>
<path d="M215.441 134.107L202.774 134.219" stroke="white" stroke-width="0.848" stroke-miterlimit="10"/>
<path d="M213.139 155.243L203.086 147.532" stroke="white" stroke-width="0.848" stroke-miterlimit="10"/>
<path d="M318.186 123.789C318.186 123.789 311.471 138.674 304.419 158.263C314.722 160.084 324.988 162.031 335.241 164.102C335.991 157.215 339.742 128.118 339.742 128.118C339.742 128.118 355.872 93.3574 353.034 91.2238C351.508 90.0759 344.869 102.553 344.869 102.553C344.869 102.553 352.671 82.7145 350.546 81.654C349.195 80.9802 339.892 99.0095 339.892 99.0095C342.756 86.1457 344.181 79.508 343.581 79.3832C340.893 78.8342 334.328 98.0487 334.328 98.0487C334.328 98.0487 339.455 81.2672 336.954 80.3314C334.841 79.5454 324.788 107.768 324.788 107.768C324.788 107.768 322.387 101.193 317.123 98.2733C315.547 97.3999 314.297 97.8491 313.459 98.5478C312.897 99.0219 312.809 99.8454 313.284 100.407C318.411 106.446 318.186 123.789 318.186 123.789Z" fill="#83D6FC"/>
<path d="M340.755 114.793C337.842 114.019 334.591 114.681 331.878 116.065C330.39 116.852 328.989 117.712 327.801 119.047C327.226 119.721 326.739 120.57 326.664 121.58C326.613 122.578 326.964 123.552 327.764 124.225C328.101 124.5 328.527 124.687 328.952 124.737L329.427 124.787L329.539 124.375C330.252 121.842 329.789 119.247 328.727 117.076C327.651 114.893 325.988 113.009 323.75 111.761C323.475 111.611 323.287 111.848 323.475 112.023C325.063 113.533 326.588 115.18 327.689 117.313C328.789 119.397 329.252 121.992 328.614 124.063L329.114 123.764H329.102C328.527 123.701 328.014 123.152 327.839 122.504C327.626 121.855 327.764 121.144 328.139 120.52C328.877 119.272 330.265 118.374 331.59 117.6C334.303 116.078 337.454 115.367 340.593 115.454C341.093 115.467 341.368 114.955 340.755 114.793Z" fill="#6FA2B0"/>
<path d="M309.67 139.622L279.448 216.817C279.448 216.817 267.97 171.189 245.713 140.433C244.813 139.185 229.796 171.538 228.183 186.86C229.946 211.315 235.41 234.809 239.636 250.018C243.55 264.092 252.928 276.195 265.994 282.745C271.596 285.553 276.935 286.925 281.687 286.164C309.945 281.647 320.786 240.636 320.786 240.636L341.355 152.735L309.67 139.622Z" fill="#FDFFF8"/>
<path d="M261.418 226.225C262.943 225.751 264.181 224.752 265.432 223.804C266.795 222.769 268.183 221.758 269.52 220.685C271.734 218.888 273.659 216.942 276.26 215.694C276.41 215.619 276.272 215.357 276.122 215.357C273.372 215.357 271.321 218.065 269.37 219.537C266.657 221.596 263.681 223.38 261.093 225.626C260.868 225.825 261.093 226.325 261.418 226.225Z" fill="#6FA2B0"/>
<path d="M269.796 244.94C270.496 242.719 270.721 240.411 271.109 238.115C271.534 235.62 272.121 233.137 272.747 230.666C273.797 226.574 274.86 222.606 277.223 219.013C277.348 218.813 277.123 218.614 276.96 218.739C273.972 221.059 272.997 226.087 272.009 229.593C270.571 234.522 269.283 239.625 269.145 244.753C269.12 245.215 269.646 245.414 269.796 244.94Z" fill="#6FA2B0"/>
<path d="M278.823 286.139C276.71 285.465 274.534 285.104 272.408 284.467C270.095 283.768 267.857 282.758 265.731 281.585C262.218 279.626 258.879 277.243 256.879 273.6C256.766 273.4 256.479 273.512 256.516 273.712C256.816 275.509 258.054 277.231 259.604 278.615C261.155 280.013 262.993 281.098 264.519 282.034C268.757 284.679 273.634 286.663 278.648 286.8C279.085 286.813 279.273 286.289 278.823 286.139Z" fill="#6FA2B0"/>
<path d="M287.688 195.544C290.039 191.065 291.89 186.211 293.74 181.407C295.753 176.167 297.779 170.902 299.68 165.624C302.843 156.828 305.481 148.406 309.132 139.784C309.345 139.298 309.107 139.048 308.882 139.41C304.856 145.836 302.13 156.117 299.342 163.64C295.453 174.133 291.052 184.602 287.151 195.07C286.813 195.981 287.176 196.505 287.688 195.544Z" fill="#6FA2B0"/>
<g opacity="0.22">
<path opacity="0.22" d="M321.261 207.796C322.487 204.552 323.112 201.046 323.687 197.59C324.325 193.809 324.925 190.004 325.362 186.211C326.075 179.873 326.275 173.859 327.263 167.558C327.326 167.196 327.038 167.071 326.925 167.346C324.962 172.237 325.212 179.473 324.525 184.888C323.587 192.45 321.961 199.986 320.648 207.484C320.523 208.133 320.999 208.482 321.261 207.796Z" fill="#6FA2B0"/>
</g>
<path d="M113.51 284.305H267.807" stroke="#9BC83F" stroke-width="0.7328" stroke-miterlimit="10"/>
</svg>
