<svg width="25" height="25" viewBox="0 0 25 25" fill="none" xmlns="http://www.w3.org/2000/svg">
<g clip-path="url(#clip0)">
<path d="M4.57021 11.05C6.95021 13.04 8.88021 15.53 10.0902 18.4C10.4402 19.23 11.6302 19.6 12.1502 18.67C15.1502 13.2 19.1502 8.38003 23.9502 4.39003C25.0702 3.46003 23.4702 1.88003 22.3602 2.80003C17.4202 6.90003 13.2902 11.91 10.2002 17.53C10.8902 17.62 11.5702 17.71 12.2602 17.8C10.9002 14.56 8.87021 11.71 6.16021 9.45003C5.05021 8.54003 3.45021 10.12 4.57021 11.05Z" fill="#646464"/>
<path d="M12.44 24.88C5.58 24.88 0 19.3 0 12.44C0 5.58 5.58 0 12.44 0C19.3 0 24.88 5.58 24.88 12.44C24.88 19.3 19.3 24.88 12.44 24.88ZM12.44 1C6.13 1 1 6.13 1 12.44C1 18.75 6.13 23.88 12.44 23.88C18.75 23.88 23.88 18.75 23.88 12.44C23.88 6.13 18.75 1 12.44 1Z" fill="#646464"/>
</g>
<defs>
<clipPath id="clip0">
<rect width="24.88" height="24.88" fill="white"/>
</clipPath>
</defs>
</svg>
