<svg width="252" height="186" viewBox="0 0 252 186" fill="none" xmlns="http://www.w3.org/2000/svg">
<path d="M202.446 158.533L178.454 158.481C178.454 158.481 161.539 158.55 161.349 146.462C161.159 133.975 170.601 133.594 177.677 133.594C184.754 133.594 203.24 134.495 203.24 119.895C203.24 105.296 178.057 107.686 178.057 107.686L77.0671 107.547L24.7858 107.773C24.7858 107.773 0 107.547 0 120.034C0 135.222 24.7858 133.542 24.7858 133.542L48.7775 133.594C48.7775 133.594 65.6926 133.525 65.8825 145.613C66.0723 158.1 58.029 158.481 50.9523 158.481C43.8756 158.481 25.3899 157.58 25.3899 172.18C25.3899 186.779 50.5726 184.389 50.5726 184.389L150.182 184.528L202.463 184.303C202.463 184.303 227.249 184.528 227.249 172.041C227.232 157.84 202.446 158.533 202.446 158.533Z" fill="#E6E6E6"/>
<g opacity="0.15">
<path opacity="0.15" d="M9.92882 84.8041C10.24 83.1695 9.08805 81.5752 7.35592 81.2433C5.62378 80.9113 3.96736 81.9674 3.65619 83.602C3.34502 85.2366 4.49695 86.8309 6.22908 87.1628C7.96122 87.4948 9.61765 86.4387 9.92882 84.8041Z" stroke="#67CDFD" stroke-width="0.3576" stroke-miterlimit="10"/>
<path opacity="0.15" d="M189.076 22.694C189.387 21.0594 188.236 19.4651 186.503 19.1332C184.771 18.8012 183.115 19.8572 182.804 21.4919C182.492 23.1265 183.644 24.7208 185.377 25.0527C187.109 25.3847 188.765 24.3286 189.076 22.694Z" stroke="#67CDFD" stroke-width="0.3576" stroke-miterlimit="10"/>
<path opacity="0.15" d="M251.637 137.785C251.327 139.431 249.67 140.487 247.944 140.158C246.217 139.829 245.061 138.236 245.372 136.59C245.682 134.945 247.339 133.889 249.065 134.218C250.809 134.547 251.948 136.157 251.637 137.785Z" stroke="#67CDFD" stroke-width="0.3576" stroke-miterlimit="10"/>
<path opacity="0.15" d="M97.7267 19.7082C97.5714 20.4876 96.7947 20.9725 95.9834 20.8166C95.1722 20.6608 94.6199 19.8988 94.7752 19.1367C94.9306 18.3574 95.7073 17.8725 96.5185 18.0284C97.3297 18.1842 97.8821 18.9462 97.7267 19.7082Z" stroke="#67CDFD" stroke-width="0.3576" stroke-miterlimit="10"/>
<path opacity="0.15" d="M231.383 180.161C231.53 179.391 230.989 178.64 230.174 178.483C229.359 178.327 228.58 178.825 228.433 179.596C228.287 180.366 228.828 181.117 229.643 181.273C230.457 181.429 231.237 180.931 231.383 180.161Z" stroke="#67CDFD" stroke-width="0.3576" stroke-miterlimit="10"/>
<path opacity="0.15" d="M54.5763 120.64C54.421 121.419 53.6443 121.904 52.8331 121.749C52.0218 121.593 51.4695 120.831 51.6248 120.069C51.7802 119.289 52.5569 118.804 53.3681 118.96C54.1794 119.116 54.7144 119.861 54.5763 120.64Z" stroke="#67CDFD" stroke-width="0.3576" stroke-miterlimit="10"/>
<path opacity="0.15" d="M243.767 67.2127C243.611 67.992 242.835 68.4769 242.023 68.3211C241.212 68.1652 240.66 67.4032 240.815 66.6412C240.971 65.8791 241.747 65.3769 242.559 65.5328C243.37 65.6886 243.905 66.4507 243.767 67.2127Z" stroke="#67CDFD" stroke-width="0.3576" stroke-miterlimit="10"/>
</g>
<path d="M33.484 128.988C33.7775 128.105 34.7786 127.637 35.7106 127.931C36.6427 128.226 37.1605 129.196 36.8671 130.079C36.5736 130.962 35.5725 131.43 34.6405 131.135C33.6912 130.841 33.1906 129.871 33.484 128.988Z" stroke="#67CDFD" stroke-width="0.3576" stroke-miterlimit="10"/>
<path d="M20.8145 139.24C21.108 138.357 22.1091 137.89 23.0411 138.184C23.9732 138.478 24.491 139.448 24.1976 140.331C23.9041 141.215 22.903 141.682 21.971 141.388C21.0389 141.076 20.5211 140.124 20.8145 139.24Z" stroke="#67CDFD" stroke-width="0.3576" stroke-miterlimit="10"/>
<path d="M19.9698 123.602C20.2632 122.718 21.2643 122.251 22.1964 122.545C23.1284 122.84 23.6463 123.81 23.3528 124.693C23.0594 125.576 22.0583 126.044 21.1263 125.749C20.1942 125.455 19.6764 124.485 19.9698 123.602Z" stroke="#67CDFD" stroke-width="0.3576" stroke-miterlimit="10"/>
<path d="M4.2452 141.128C4.53863 140.245 5.53973 139.777 6.47178 140.071C7.40383 140.366 7.92164 141.336 7.62822 142.219C7.33479 143.102 6.3337 143.57 5.40164 143.275C4.46959 142.981 3.95178 142.011 4.2452 141.128Z" stroke="#67CDFD" stroke-width="0.3576" stroke-miterlimit="10"/>
<path d="M33.967 130.339L23.2484 138.045C23.1621 138.115 23.0412 138.063 23.024 137.959L21.1599 125.905C21.1426 125.853 21.0736 125.818 21.039 125.87L7.14453 140.453" stroke="#67CDFD" stroke-width="0.3576" stroke-miterlimit="10"/>
<path d="M191.243 106.041C191.985 105.452 193.107 105.573 193.746 106.283C194.384 107.01 194.281 108.067 193.539 108.656C192.796 109.245 191.674 109.123 191.036 108.413C190.414 107.703 190.501 106.629 191.243 106.041Z" stroke="#67CDFD" stroke-width="0.3576" stroke-miterlimit="10"/>
<path d="M199.269 92.5668C200.011 91.9779 201.133 92.0992 201.772 92.8092C202.411 93.5366 202.307 94.593 201.565 95.1818C200.823 95.7707 199.701 95.6494 199.062 94.9394C198.441 94.212 198.527 93.1556 199.269 92.5668Z" stroke="#67CDFD" stroke-width="0.3576" stroke-miterlimit="10"/>
<path d="M175.967 99.2345C176.71 98.6457 177.832 98.7669 178.47 99.4769C179.109 100.204 179.005 101.261 178.263 101.85C177.521 102.438 176.399 102.317 175.76 101.607C175.139 100.88 175.225 99.806 175.967 99.2345Z" stroke="#67CDFD" stroke-width="0.3576" stroke-miterlimit="10"/>
<path d="M193.746 106.3L198.993 95.182C199.028 95.1128 198.958 95.0435 198.889 95.0608L178.833 100.118" stroke="#67CDFD" stroke-width="0.3576" stroke-miterlimit="10"/>
<path d="M129.814 3.68865C128.83 3.75792 127.967 3.04787 127.881 2.11267C127.795 1.17747 128.52 0.380827 129.486 0.311553C130.453 0.242279 131.333 0.952335 131.419 1.88753C131.506 2.82273 130.798 3.61937 129.814 3.68865Z" stroke="#67CDFD" stroke-width="0.3576" stroke-miterlimit="10"/>
<path d="M144.883 11.0317C143.916 11.1009 143.053 10.3909 142.967 9.45569C142.881 8.52049 143.606 7.72384 144.572 7.65457C145.556 7.5853 146.419 8.29535 146.505 9.23055C146.592 10.1657 145.867 10.9624 144.883 11.0317Z" stroke="#67CDFD" stroke-width="0.3576" stroke-miterlimit="10"/>
<path d="M130.091 17.5087C129.107 17.578 128.244 16.8679 128.157 15.9327C128.071 14.9975 128.796 14.2009 129.763 14.1316C130.746 14.0623 131.609 14.7724 131.696 15.7076C131.782 16.6428 131.057 17.4568 130.091 17.5087Z" stroke="#67CDFD" stroke-width="0.3576" stroke-miterlimit="10"/>
<path d="M130.919 2.77075L142.811 9.3864C142.88 9.42103 142.88 9.52494 142.811 9.55958L131.696 15.7076" stroke="#67CDFD" stroke-width="0.3576" stroke-miterlimit="10"/>
<path d="M219.826 47.279C219.722 47.8678 219.136 48.2315 218.514 48.1276C217.893 48.0064 217.496 47.4348 217.599 46.8633C217.703 46.2745 218.29 45.9108 218.911 46.0147C219.515 46.136 219.929 46.7075 219.826 47.279Z" stroke="#67CDFD" stroke-width="0.3576" stroke-miterlimit="10"/>
<path d="M207.33 55.1933C207.088 56.4403 205.845 57.2369 204.534 56.9945C203.222 56.7347 202.359 55.5397 202.583 54.2928C202.825 53.0458 204.068 52.2492 205.379 52.4917C206.709 52.7341 207.572 53.9464 207.33 55.1933Z" stroke="#67CDFD" stroke-width="0.3576" stroke-miterlimit="10"/>
<path d="M211.869 53.9985C214.458 64.4069 213.422 73.4991 209.556 74.2957C205.689 75.0924 200.442 67.2991 197.853 56.8907C195.264 46.4823 196.3 37.3901 200.166 36.5935C204.032 35.7968 209.279 43.5728 211.869 53.9985Z" stroke="#67CDFD" stroke-width="0.3576" stroke-miterlimit="10"/>
<path d="M222.244 65.6616C224.163 62.3775 217.932 55.1354 208.326 49.486C198.721 43.8365 189.379 41.919 187.46 45.203C185.542 48.4871 191.773 55.7292 201.378 61.3787C210.984 67.0281 220.326 68.9457 222.244 65.6616Z" stroke="#67CDFD" stroke-width="0.3576" stroke-miterlimit="10"/>
<path d="M206.645 62.1365C217.356 59.2643 225.24 53.9396 224.256 50.2434C223.271 46.5473 213.79 45.8793 203.08 48.7514C192.369 51.6236 184.485 56.9483 185.469 60.6444C186.454 64.3406 195.934 65.0086 206.645 62.1365Z" stroke="#67CDFD" stroke-width="0.3576" stroke-miterlimit="10"/>
<path d="M53.0159 31.6654C53.6007 28.5934 51.4486 25.5998 48.209 24.979C44.9694 24.3581 41.8692 26.3452 41.2844 29.4172C40.6996 32.4892 42.8518 35.4828 46.0913 36.1036C49.3309 36.7245 52.4311 34.7374 53.0159 31.6654Z" stroke="#67CDFD" stroke-width="0.3576" stroke-miterlimit="10"/>
<path d="M32.8279 40.6808C33.6564 40.8713 34.1914 41.6506 34.0016 42.4473C33.829 43.2266 33.0005 43.7115 32.172 43.5383C31.3435 43.3478 30.8084 42.5685 30.9983 41.7718C31.1881 40.9752 31.9994 40.4903 32.8279 40.6808Z" stroke="#67CDFD" stroke-width="0.3576" stroke-miterlimit="10"/>
<path d="M33.6904 41.5122L42.8729 34.7581" stroke="#67CDFD" stroke-width="0.3576" stroke-miterlimit="10"/>
<path d="M33.6912 20.1066C34.5197 20.2971 35.0547 21.0764 34.8649 21.8731C34.6923 22.6524 33.8638 23.1373 33.0353 22.9642C32.2068 22.7736 31.6717 21.9943 31.8616 21.1977C32.0514 20.4183 32.8627 19.9161 33.6912 20.1066Z" stroke="#67CDFD" stroke-width="0.3576" stroke-miterlimit="10"/>
<path d="M34.5371 22.2715L42.4251 26.8782" stroke="#67CDFD" stroke-width="0.3576" stroke-miterlimit="10"/>
<path d="M54.7996 40.4213C55.628 40.6118 56.1631 41.3911 55.9733 42.1877C55.8007 42.9671 54.9722 43.452 54.1437 43.2788C53.3152 43.0883 52.7801 42.309 52.97 41.5123C53.1598 40.7157 53.9711 40.2308 54.7996 40.4213Z" stroke="#67CDFD" stroke-width="0.3576" stroke-miterlimit="10"/>
<path d="M53.9712 40.5251L50.6572 35.3643" stroke="#67CDFD" stroke-width="0.3576" stroke-miterlimit="10"/>
<path d="M58.616 18.3922C59.4444 18.5827 59.9795 19.362 59.7897 20.1587C59.6171 20.938 58.7886 21.4229 57.9601 21.2498C57.1316 21.0593 56.5965 20.2799 56.7864 19.4833C56.959 18.6866 57.7875 18.2017 58.616 18.3922Z" stroke="#67CDFD" stroke-width="0.3576" stroke-miterlimit="10"/>
<path d="M51.2969 26.4107L57.1654 20.7476" stroke="#67CDFD" stroke-width="0.3576" stroke-miterlimit="10"/>
<path d="M44.2371 13.1273C45.0655 13.3178 45.6006 14.0972 45.4107 14.8938C45.2381 15.6731 44.4097 16.158 43.5812 15.9849C42.7527 15.7944 42.2176 15.015 42.4075 14.2184C42.5801 13.4217 43.4086 12.9368 44.2371 13.1273Z" stroke="#67CDFD" stroke-width="0.3576" stroke-miterlimit="10"/>
<path d="M46.8943 24.8865L44.3916 16.1926" stroke="#67CDFD" stroke-width="0.3576" stroke-miterlimit="10"/>
<path opacity="0.7" d="M183.373 30.1339C134.941 46.6037 109.499 17.959 109.499 17.9763C109.499 17.9763 84.0573 46.6037 35.625 30.1339C35.625 30.1339 7.92228 124.467 109.447 186H109.551C211.076 124.467 183.373 30.1339 183.373 30.1339Z" fill="#CCCCCC"/>
<path d="M165.613 47.4353C128.831 59.9392 109.517 38.2046 109.517 38.2046C109.517 38.2046 90.1852 59.9565 53.4208 47.4353C53.4208 47.4353 32.3805 119.082 109.482 165.807H109.568C186.636 119.064 165.613 47.4353 165.613 47.4353Z" fill="white" stroke="#67CDFD" stroke-width="1.0595" stroke-miterlimit="10"/>
<path d="M111.467 184.459C111.467 184.389 111.467 184.32 111.484 184.251C112.537 180.077 116.835 177.929 116.835 177.929L118.906 178.085C120.097 181.774 120.856 183.558 120.667 184.562C120.667 184.597 120.649 184.614 120.649 184.649C118.923 184.805 115.419 184.909 111.467 184.459Z" fill="#808080"/>
<path d="M120.632 184.649C120.546 184.978 120.287 185.238 119.976 185.307C117.56 185.827 113.711 185.411 112.088 185.203C111.726 185.151 111.467 184.822 111.467 184.459C115.419 184.909 118.923 184.805 120.632 184.649Z" fill="#4D4D4D"/>
<path d="M115.126 174.708L116.024 179.073C116.093 179.384 116.334 179.627 116.628 179.661C116.99 179.696 117.508 179.713 118.026 179.644C118.492 179.575 118.82 179.107 118.733 178.588L118.112 174.708H115.126Z" fill="url(#paint0_linear)"/>
<path d="M138.169 184.614C135.959 184.545 134.82 184.285 134.233 184.043C134.233 184.268 134.233 184.493 134.233 184.718C134.233 184.961 134.423 185.169 134.648 185.169L146.747 185.082C147.127 185.082 147.351 184.632 147.196 184.268C145.625 184.424 141.586 184.718 138.169 184.614Z" fill="#4D4D4D"/>
<path d="M147.213 184.285C147.196 184.251 147.179 184.216 147.161 184.199C146.091 182.692 143.364 179.713 137.996 178.414L135.407 178.328C135.407 178.328 134.251 180.337 134.233 184.043C134.82 184.285 135.959 184.545 138.169 184.614C141.586 184.718 145.625 184.424 147.213 184.285Z" fill="#808080"/>
<path d="M134.94 174.414C134.975 174.604 135.32 177.548 135.458 178.674C135.493 178.951 135.683 179.159 135.924 179.176C136.356 179.228 137.081 179.28 137.702 179.142C138.03 179.072 138.289 178.743 138.289 178.38V173.773L134.94 174.414Z" fill="url(#paint1_linear)"/>
<path d="M116.852 117.367C116.852 117.367 112.727 154.203 115.022 177.237C115.022 177.237 117.784 177.237 119.148 176.769C119.148 176.769 123.445 140.747 124.826 130.442C124.878 130.061 125.43 130.044 125.499 130.425C127.208 139.102 133.94 173.098 134.751 176.319C134.751 176.319 137.046 177.237 138.876 176.319C138.876 176.319 135.2 127.048 132.455 118.285L116.852 117.367Z" fill="#999999"/>
<path d="M108.584 74.5383C108.584 74.5383 126.034 71.7674 139.79 75.4562L138.875 89.7266C138.875 89.7266 135.199 109.522 132.454 118.285C132.454 118.285 121.891 120.12 116.851 117.367C116.851 117.367 112.726 92.4976 110.43 88.8087C110.43 88.8087 108.135 79.145 108.584 74.5383Z" fill="#67CDFD"/>
<path d="M121.375 66.1389L119.873 74.0534C119.873 74.0534 124.05 75.5601 126.967 73.9842L126.346 68.4076L121.375 66.1389Z" fill="url(#paint2_linear)"/>
<path d="M128.037 57.3412C128.089 57.4278 128.779 62.7273 129.194 66.0005C129.366 67.3513 128.21 68.6848 126.725 68.858L125.362 69.0139C122.842 69.291 120.736 67.7496 120.494 65.4636L119.873 59.5234C119.873 59.506 126.881 55.2284 128.037 57.3412Z" fill="url(#paint3_linear)"/>
<path d="M121.737 67.2648C121.737 67.2648 121.686 63.9396 120.339 63.6279C118.993 63.3162 117.543 64.286 118.7 66.2776C120.132 68.7542 121.737 67.2648 121.737 67.2648Z" fill="url(#paint4_linear)"/>
<path d="M108.584 74.5386C108.584 74.5386 81.5029 104.015 113.4 115.289V112.985C113.4 112.985 101.473 102.854 110.638 89.0341C110.655 89.0514 109.516 75.924 108.584 74.5386Z" fill="#67CDFD"/>
<path d="M113.642 113.228C113.642 113.228 117.767 110.457 119.614 111.392C121.443 112.31 121.443 113.695 121.443 113.695C121.443 113.695 120.528 115.531 119.148 115.081C117.767 114.613 114.556 115.548 113.175 115.081C113.175 115.063 112.727 113.228 113.642 113.228Z" fill="url(#paint5_linear)"/>
<path d="M139.808 75.4563C139.808 75.4563 168.029 104.014 136.132 115.289V112.985C136.132 112.985 148.059 102.854 138.893 89.034C138.893 89.0513 137.961 77.7597 139.808 75.4563Z" fill="#67CDFD"/>
<path d="M135.907 113.228C135.907 113.228 131.782 110.457 129.935 111.392C128.105 112.31 128.105 113.695 128.105 113.695C128.105 113.695 129.02 115.531 130.401 115.081C131.782 114.613 134.992 115.548 136.373 115.081C136.356 115.063 136.822 113.228 135.907 113.228Z" fill="url(#paint6_linear)"/>
<path d="M99.367 63.4719C99.367 63.4719 96.6398 64.8054 96.1393 66.3295C95.7423 67.5591 92.7218 67.7149 92.4111 70.1395C92.2557 71.3864 91.3409 72.3909 90.0982 72.5814C87.0086 73.049 82.262 74.6596 81.5026 80.0283C80.9157 84.1328 83.0042 85.6915 85.1963 86.2284C86.8015 86.6267 87.8716 88.1853 87.5437 89.8133C87.233 91.3719 87.699 93.173 90.3916 94.6105C96.4327 97.8144 102.457 87.0423 102.457 87.0423L103.699 68.2345L99.367 63.4719Z" fill="#342027"/>
<path d="M74.5468 180.579L74.1498 183.8C74.0808 184.406 73.5975 184.891 72.9934 184.961C71.9578 185.082 70.318 185.203 68.6956 185.03C67.9879 184.961 67.5219 184.233 67.7462 183.558C68.1432 182.311 68.8682 180.44 69.9038 179.349H73.4594C74.1153 179.349 74.6331 179.921 74.5468 180.579Z" fill="#808080"/>
<path d="M102.457 142.808L103.061 146.358C103.061 146.358 101.041 166.828 100.696 175.02C100.644 176.301 100.972 177.566 101.645 178.674L105.149 184.389L96.2429 179.124L96.0703 178.033L97.5202 176.024L95.6043 153.095C95.5007 151.744 95.7769 150.393 96.3983 149.198L98.2451 145.734L102.457 142.808Z" fill="url(#paint7_linear)"/>
<path d="M105.719 185.203H102.871C102.336 185.203 101.835 184.961 101.507 184.528C100.627 183.367 98.78 181.116 97.917 181.064C96.7433 180.977 96.8813 185.203 96.8813 185.203H96.2255L95.3797 179.973C95.1726 178.657 95.8285 177.358 97.0022 176.734C97.0022 176.734 97.2783 178.743 98.7282 179.627C100.195 180.51 104.683 183.679 104.683 183.679C104.683 183.679 105.235 183.592 105.839 183.714C106.754 183.87 106.633 185.203 105.719 185.203Z" fill="#808080"/>
<path d="M90.2715 144.505C90.2715 144.505 78.4654 166.967 76.6013 172.093C74.72 177.219 74.0641 181.497 74.0468 181.895C74.0123 182.536 73.2183 183.142 71.0608 183.142C69.9389 183.142 69.4038 182.692 69.1276 182.259C68.9032 181.895 68.886 181.428 69.0758 181.029C69.7663 179.644 71.9238 175.21 72.735 173.201C73.6843 170.794 75.7556 159.935 76.8775 156.16C77.9994 152.385 79.2767 148.28 84.2131 144.505C84.1958 144.505 87.5789 141.18 90.2715 144.505Z" fill="url(#paint8_linear)"/>
<path d="M97.7277 107.703C100.765 94.7661 93.0674 87.4404 93.0674 87.4404C97.9348 82.7471 106.807 80.6169 106.807 80.6169C106.807 80.6169 115.264 86.8169 114.263 91.6834C113.676 94.5236 108.308 108.742 108.308 108.742C108.308 108.742 103.337 111.08 97.7277 107.703Z" fill="#9BC83F"/>
<path d="M90.9788 114.111C92.2215 110.37 97.7275 107.703 97.7275 107.703C103.354 111.098 108.308 108.742 108.308 108.742C108.308 108.742 109.413 113.003 108.653 116.968C107.894 120.934 103.078 146.375 103.078 146.375C95.501 147.917 83.833 144.817 83.833 144.817C88.6486 136.209 89.736 117.852 90.9788 114.111Z" fill="#999999"/>
<path d="M101.491 74.4691L99.5058 83.3708C99.3159 84.1501 100.024 84.0289 100.818 83.873C102.112 83.6305 103.786 83.1283 104.339 82.1065C104.39 82.0026 104.425 81.8814 104.442 81.7775L105.288 75.6121C105.357 75.1272 105.098 74.6423 104.632 74.4518L102.992 73.7244C102.371 73.43 101.646 73.7937 101.491 74.4691Z" fill="url(#paint9_linear)"/>
<path d="M93.0497 87.4404C93.0497 87.4404 75.7722 99.8404 90.8404 112.864C90.8404 112.864 91.41 113.522 92.5492 113.851C93.1188 114.024 94.8103 115.306 95.656 115.964C95.9322 116.172 96.3292 116.102 96.5191 115.808C96.6571 115.583 96.6744 115.288 96.5708 115.046L94.4306 110.509C93.8437 109.954 92.9289 109.92 92.2903 110.422C91.8761 110.751 91.2892 110.612 91.0648 110.145C89.9084 107.772 87.6991 100.758 96.7089 92.8611C97.0541 92.5667 97.1404 92.0644 96.9333 91.6661C96.2774 90.4538 94.8276 88.0293 93.0497 87.4404Z" fill="url(#paint10_linear)"/>
<path d="M105.668 66.4505C105.668 66.4505 107.342 68.7712 106.91 72.9796C106.479 77.188 104.425 78.0019 102.854 77.3438C101.283 76.6857 99.1604 75.3522 98.1421 71.8539C97.1582 68.3556 103.424 63.541 105.668 66.4505Z" fill="url(#paint11_linear)"/>
<path d="M101.887 71.5596C101.887 71.5596 104.943 69.6892 104.994 68.0612L106.53 68.4076C106.53 68.4076 108.136 66.0523 105.288 63.9221C103.441 62.5367 99.143 61.9478 97.1063 65.6713C94.9488 69.6199 94.1548 72.4082 95.9672 74.8674C97.7795 77.3266 99.143 75.2138 99.143 75.2138C99.143 75.2138 98.3146 73.0836 99.005 72.183C99.6954 71.2652 100.576 72.7199 100.576 72.7199L101.887 71.5596Z" fill="#342027"/>
<path d="M129.918 59.4889C129.418 57.6705 128.382 57.047 127.864 56.5621C127.347 56.0945 124.723 55.0727 123.101 55.5057C121.737 55.8694 121.685 57.0124 121.685 57.3761C121.478 57.1856 121.15 57.1856 120.65 57.5319C118.993 58.7096 119.079 62.4504 119.856 64.4939C119.856 64.4939 120.598 63.5241 120.788 62.5889C121.029 61.3074 121.237 61.0649 121.633 60.6839C122.048 60.3029 122.738 59.5062 122.721 59.056C123.549 60.5453 125.016 61.3766 125.793 61.5325C126.95 61.775 130.781 61.6018 131.23 61.6018C131.109 61.6018 130.384 61.1688 129.918 59.4889Z" fill="black"/>
<defs>
<linearGradient id="paint0_linear" x1="117.659" y1="170.503" x2="115.806" y2="186.619" gradientUnits="userSpaceOnUse">
<stop stop-color="#FFB9B9"/>
<stop offset="1" stop-color="#FF908D"/>
</linearGradient>
<linearGradient id="paint1_linear" x1="137.047" y1="172.565" x2="135.315" y2="187.64" gradientUnits="userSpaceOnUse">
<stop stop-color="#FFB9B9"/>
<stop offset="1" stop-color="#FF908D"/>
</linearGradient>
<linearGradient id="paint2_linear" x1="119.876" y1="70.4261" x2="126.969" y2="70.4261" gradientUnits="userSpaceOnUse">
<stop stop-color="#FFB9B9"/>
<stop offset="1" stop-color="#FF908D"/>
</linearGradient>
<linearGradient id="paint3_linear" x1="824.465" y1="-543.434" x2="835.022" y2="-553.769" gradientUnits="userSpaceOnUse">
<stop stop-color="#FFB9B9"/>
<stop offset="1" stop-color="#FF908D"/>
</linearGradient>
<linearGradient id="paint4_linear" x1="809.655" y1="-569.34" x2="820.652" y2="-579.4" gradientUnits="userSpaceOnUse">
<stop stop-color="#FFB9B9"/>
<stop offset="1" stop-color="#FF908D"/>
</linearGradient>
<linearGradient id="paint5_linear" x1="120.98" y1="110.591" x2="106.25" y2="123.13" gradientUnits="userSpaceOnUse">
<stop stop-color="#FFB9B9"/>
<stop offset="1" stop-color="#FF908D"/>
</linearGradient>
<linearGradient id="paint6_linear" x1="129.817" y1="111.269" x2="138.106" y2="119.531" gradientUnits="userSpaceOnUse">
<stop stop-color="#FFB9B9"/>
<stop offset="1" stop-color="#FF908D"/>
</linearGradient>
<linearGradient id="paint7_linear" x1="103.585" y1="209.414" x2="93.6344" y2="93.4752" gradientUnits="userSpaceOnUse">
<stop stop-color="#FFB9B9"/>
<stop offset="1" stop-color="#FF908D"/>
</linearGradient>
<linearGradient id="paint8_linear" x1="83.6991" y1="211.139" x2="73.7418" y2="95.1698" gradientUnits="userSpaceOnUse">
<stop stop-color="#FFB9B9"/>
<stop offset="1" stop-color="#FF908D"/>
</linearGradient>
<linearGradient id="paint9_linear" x1="104.213" y1="92.8879" x2="102.719" y2="81.9993" gradientUnits="userSpaceOnUse">
<stop stop-color="#FFB9B9"/>
<stop offset="1" stop-color="#FF908D"/>
</linearGradient>
<linearGradient id="paint10_linear" x1="97.0144" y1="101.771" x2="84.6796" y2="101.771" gradientUnits="userSpaceOnUse">
<stop stop-color="#FFB9B9"/>
<stop offset="1" stop-color="#FF908D"/>
</linearGradient>
<linearGradient id="paint11_linear" x1="102.68" y1="80.1498" x2="103.601" y2="50.3132" gradientUnits="userSpaceOnUse">
<stop stop-color="#FFB9B9"/>
<stop offset="1" stop-color="#FF908D"/>
</linearGradient>
</defs>
</svg>
