<svg width="21" height="27" viewBox="0 0 21 27" fill="none" xmlns="http://www.w3.org/2000/svg">
<g clip-path="url(#clip0)">
<path d="M4.34977 5.67C2.78977 5.67 1.50977 4.4 1.50977 2.83C1.50977 1.26 2.78977 0 4.34977 0C5.90977 0 7.18977 1.27 7.18977 2.84C7.18977 4.41 5.90977 5.67 4.34977 5.67ZM4.34977 1C3.33977 1 2.50977 1.82 2.50977 2.84C2.50977 3.86 3.32977 4.68 4.34977 4.68C5.36977 4.68 6.18977 3.86 6.18977 2.84C6.18977 1.82 5.35977 1 4.34977 1Z" fill="#646464"/>
<path d="M6.95 12.09C6.61 12.09 6.23 12.04 5.83 12C4.88 11.88 3.81 11.88 2.86 12C1.91 12.12 1.08 12.22 0.52 11.71C0.17 11.4 0 10.91 0 10.2C0 7.79998 1.95 5.84998 4.35 5.84998C6.75 5.84998 8.7 7.79998 8.7 10.2C8.7 10.9 8.53 11.4 8.17 11.71C7.84 12 7.43 12.09 6.95 12.09ZM4.35 10.88C4.93 10.88 5.47 10.95 5.95 11C6.63 11.08 7.28 11.16 7.51 10.96C7.67 10.82 7.7 10.47 7.7 10.2C7.7 8.34998 6.2 6.84998 4.35 6.84998C2.5 6.84998 1 8.35998 1 10.2C1 10.47 1.03 10.82 1.19 10.96C1.41 11.16 2.06 11.08 2.75 11C3.23 10.95 3.77 10.88 4.35 10.88Z" fill="#646464"/>
<path d="M10.3791 20.42C8.81906 20.42 7.53906 19.15 7.53906 17.58C7.53906 16.01 8.80906 14.74 10.3791 14.74C11.9491 14.74 13.2191 16.01 13.2191 17.58C13.2191 19.15 11.9391 20.42 10.3791 20.42ZM10.3791 15.75C9.36906 15.75 8.53906 16.57 8.53906 17.59C8.53906 18.61 9.35906 19.43 10.3791 19.43C11.3991 19.43 12.2191 18.61 12.2191 17.59C12.2191 16.57 11.3891 15.75 10.3791 15.75Z" fill="#646464"/>
<path d="M12.9795 26.84C12.6395 26.84 12.2595 26.79 11.8595 26.75C10.9095 26.63 9.83953 26.63 8.88953 26.75C7.93953 26.86 7.10953 26.96 6.54953 26.47C6.19953 26.16 6.01953 25.66 6.01953 24.96C6.01953 22.56 7.96953 20.61 10.3695 20.61C12.7695 20.61 14.7195 22.56 14.7195 24.96C14.7195 25.66 14.5495 26.16 14.1895 26.47C13.8695 26.75 13.4595 26.84 12.9795 26.84ZM10.3795 25.63C10.9595 25.63 11.4995 25.7 11.9795 25.75C12.6595 25.83 13.3095 25.91 13.5295 25.71C13.6895 25.57 13.7195 25.22 13.7195 24.95C13.7195 23.1 12.2195 21.6 10.3695 21.6C8.51953 21.6 7.01953 23.1 7.01953 24.95C7.01953 25.22 7.04953 25.57 7.20953 25.71C7.43953 25.91 8.07953 25.83 8.75953 25.75C9.24953 25.7 9.79953 25.63 10.3795 25.63Z" fill="#646464"/>
<path d="M16.4005 5.67C14.8405 5.67 13.5605 4.4 13.5605 2.83C13.5605 1.26 14.8405 0 16.4005 0C17.9605 0 19.2405 1.27 19.2405 2.84C19.2405 4.41 17.9705 5.67 16.4005 5.67ZM16.4005 1C15.3905 1 14.5605 1.82 14.5605 2.84C14.5605 3.86 15.3805 4.68 16.4005 4.68C17.4205 4.68 18.2405 3.86 18.2405 2.84C18.2405 1.82 17.4205 1 16.4005 1Z" fill="#646464"/>
<path d="M19.0108 12.09C18.6708 12.09 18.2908 12.04 17.8908 12C16.9408 11.88 15.8708 11.88 14.9208 12C13.9708 12.12 13.1508 12.21 12.5808 11.72C12.2308 11.41 12.0508 10.91 12.0508 10.21C12.0508 7.80999 14.0008 5.85999 16.4008 5.85999C18.8008 5.85999 20.7508 7.80999 20.7508 10.21C20.7508 10.91 20.5808 11.41 20.2208 11.72C19.9008 12 19.4808 12.09 19.0108 12.09ZM16.4008 10.88C16.9808 10.88 17.5208 10.95 18.0008 11C18.6808 11.08 19.3308 11.16 19.5508 10.96C19.7108 10.82 19.7408 10.47 19.7408 10.2C19.7408 8.34999 18.2408 6.84999 16.3908 6.84999C14.5408 6.84999 13.0408 8.34999 13.0408 10.2C13.0408 10.47 13.0708 10.82 13.2308 10.96C13.4508 11.16 14.1008 11.08 14.7808 11C15.2808 10.95 15.8308 10.88 16.4008 10.88Z" fill="#646464"/>
<path d="M10.3794 13.18C10.2794 13.18 10.1794 13.14 10.1094 13.07L8.83938 11.78C8.69938 11.63 8.69938 11.4 8.83938 11.25C8.98937 11.11 9.22937 11.11 9.36937 11.25L10.3694 12.27L11.3694 11.25C11.5194 11.1 11.7494 11.1 11.8994 11.25C12.0494 11.39 12.0494 11.63 11.8994 11.78L10.6294 13.07C10.5794 13.14 10.4794 13.18 10.3794 13.18Z" fill="#646464"/>
<path d="M10.38 14.4599C10.17 14.4599 10 14.2899 10 14.0799V12.8099C10 12.5999 10.17 12.4299 10.38 12.4299C10.59 12.4299 10.76 12.5999 10.76 12.8099V14.0799C10.75 14.2899 10.58 14.4599 10.38 14.4599Z" fill="#646464"/>
</g>
<defs>
<clipPath id="clip0">
<rect width="20.75" height="26.84" fill="white"/>
</clipPath>
</defs>
</svg>
