<svg width="33" height="33" viewBox="0 0 33 33" fill="none" xmlns="http://www.w3.org/2000/svg">
<g clip-path="url(#clip0)">
<path d="M14.4004 8.6999C14.4004 8.1999 14.6004 7.6999 14.9004 7.3999C15.3004 7.0999 15.7004 6.8999 16.3004 6.8999C16.9004 6.8999 17.4004 7.0999 17.7004 7.3999C18.1004 7.6999 18.2004 8.1999 18.2004 8.6999C18.2004 9.1999 18.0004 9.6999 17.7004 9.9999C17.3004 10.2999 16.9004 10.4999 16.3004 10.4999C15.7004 10.4999 15.2004 10.2999 14.9004 9.9999C14.5004 9.6999 14.4004 9.2999 14.4004 8.6999ZM16.3004 25.2999C15.3004 25.2999 14.5004 24.4999 14.5004 23.4999V13.7999C14.5004 12.7999 15.3004 11.9999 16.3004 11.9999C17.3004 11.9999 18.1004 12.7999 18.1004 13.7999V23.4999C18.1004 24.4999 17.3004 25.2999 16.3004 25.2999Z" fill="#9BC83F"/>
<path d="M16.3 31.1C24.4738 31.1 31.1 24.4738 31.1 16.3C31.1 8.12618 24.4738 1.5 16.3 1.5C8.12618 1.5 1.5 8.12618 1.5 16.3C1.5 24.4738 8.12618 31.1 16.3 31.1Z" stroke="#DADADA" stroke-width="3" stroke-miterlimit="10"/>
</g>
<defs>
<clipPath id="clip0">
<rect width="32.7" height="32.7" fill="white"/>
</clipPath>
</defs>
</svg>
