<svg width="60" height="58" viewBox="0 0 60 58" fill="none" xmlns="http://www.w3.org/2000/svg">
<path fill="none" d="M11.694 44.0994H8.56531C8.07714 44.0994 7.67773 43.7019 7.67773 43.2161V40.0803C7.67773 39.5945 8.07714 39.197 8.56531 39.197H11.7162C12.2044 39.197 12.6038 39.5945 12.6038 40.0803V43.2161C12.6038 43.7019 12.2044 44.0994 11.694 44.0994Z"  stroke-miterlimit="10"/>
<path fill="none" d="M11.694 35.5313H8.56531C8.07714 35.5313 7.67773 35.1338 7.67773 34.648V31.5122C7.67773 31.0264 8.07714 30.6289 8.56531 30.6289H11.7162C12.2044 30.6289 12.6038 31.0264 12.6038 31.5122V34.648C12.6038 35.1338 12.2044 35.5313 11.694 35.5313Z"  stroke-miterlimit="10"/>
<path fill="none" d="M11.694 26.9852H8.56531C8.07714 26.9852 7.67773 26.5877 7.67773 26.1018V22.9661C7.67773 22.4803 8.07714 22.0828 8.56531 22.0828H11.7162C12.2044 22.0828 12.6038 22.4803 12.6038 22.9661V26.1018C12.6038 26.5877 12.2044 26.9852 11.694 26.9852Z"  stroke-miterlimit="10"/>
<path fill="none" d="M11.694 18.4391H8.56531C8.07714 18.4391 7.67773 18.0416 7.67773 17.5558V14.398C7.67773 13.9121 8.07714 13.5146 8.56531 13.5146H11.7162C12.2044 13.5146 12.6038 13.9121 12.6038 14.398V17.5337C12.6038 18.0416 12.2044 18.4391 11.694 18.4391Z"  stroke-miterlimit="10"/>
<path fill="none" d="M46.4999 54.6429H13.5012C7.82314 54.6429 3.21484 50.0715 3.21484 44.4388V13.4184C3.21484 7.78578 7.82314 3.21436 13.5012 3.21436H46.4999C52.178 3.21436 56.7863 7.78578 56.7863 13.4184V44.4388C56.7863 50.0715 52.1986 54.6429 46.4999 54.6429Z"  stroke-width="2" stroke-miterlimit="10"/>
<rect x="16" y="15" width="35" height="2" />
<rect x="16" y="24" width="35" height="2" />
<rect x="16" y="32" width="35" height="2" />
<rect x="16" y="41" width="35" height="2" />
</svg>
