<svg width="21" height="25" viewBox="0 0 21 25" fill="none" xmlns="http://www.w3.org/2000/svg">
<path d="M4.25055 17.77H2.84055C2.55055 17.77 2.31055 17.53 2.31055 17.24V15.82C2.31055 15.53 2.55055 15.29 2.84055 15.29H4.26055C4.55055 15.29 4.79055 15.53 4.79055 15.82V17.24C4.78055 17.53 4.55055 17.77 4.25055 17.77ZM2.84055 15.54C2.69055 15.54 2.56055 15.67 2.56055 15.82V17.24C2.56055 17.39 2.68055 17.52 2.84055 17.52H4.26055C4.41055 17.52 4.54055 17.39 4.54055 17.24V15.82C4.54055 15.67 4.41055 15.54 4.26055 15.54H2.84055Z" fill="#646464"/>
<path d="M4.25055 13.87H2.84055C2.55055 13.87 2.31055 13.63 2.31055 13.34V11.92C2.31055 11.63 2.55055 11.39 2.84055 11.39H4.26055C4.55055 11.39 4.79055 11.63 4.79055 11.92V13.34C4.78055 13.63 4.55055 13.87 4.25055 13.87ZM2.84055 11.64C2.69055 11.64 2.56055 11.77 2.56055 11.92V13.34C2.56055 13.49 2.68055 13.62 2.84055 13.62H4.26055C4.41055 13.62 4.54055 13.49 4.54055 13.34V11.92C4.54055 11.77 4.41055 11.64 4.26055 11.64H2.84055Z" fill="#646464"/>
<path d="M4.25055 10.1H2.84055C2.55055 10.1 2.31055 9.85999 2.31055 9.56999V8.14999C2.31055 7.85999 2.55055 7.62 2.84055 7.62H4.26055C4.55055 7.62 4.79055 7.85999 4.79055 8.14999V9.56999C4.78055 9.85999 4.55055 10.1 4.25055 10.1ZM2.84055 7.87C2.68055 7.87 2.56055 7.99999 2.56055 8.14999V9.56999C2.56055 9.72 2.68055 9.85 2.84055 9.85H4.26055C4.41055 9.85 4.54055 9.72 4.54055 9.56999V8.14999C4.54055 7.99999 4.41055 7.87 4.26055 7.87H2.84055Z" fill="#646464"/>
<path d="M17.9605 9.42005H6.38047C6.16047 9.42005 5.98047 9.24005 5.98047 9.02005V8.70005C5.98047 8.48005 6.16047 8.30005 6.38047 8.30005H17.9605C18.1805 8.30005 18.3605 8.48005 18.3605 8.70005V9.02005C18.3505 9.24005 18.1805 9.42005 17.9605 9.42005Z" fill="#646464"/>
<path d="M17.9605 13.1899H6.38047C6.16047 13.1899 5.98047 13.0099 5.98047 12.7899V12.4699C5.98047 12.2499 6.16047 12.0699 6.38047 12.0699H17.9605C18.1805 12.0699 18.3605 12.2499 18.3605 12.4699V12.7899C18.3505 13.0099 18.1805 13.1899 17.9605 13.1899Z" fill="#646464"/>
<path d="M17.9605 17.09H6.38047C6.16047 17.09 5.98047 16.91 5.98047 16.69V16.37C5.98047 16.15 6.16047 15.97 6.38047 15.97H17.9605C18.1805 15.97 18.3605 16.15 18.3605 16.37V16.69C18.3505 16.91 18.1805 17.09 17.9605 17.09Z" fill="#646464"/>
<path d="M15.1 0.910029L15.11 0.920029L15.1 2.14003L5.88 2.13003L5.9 0.910029H15.1ZM15.1 0.530029H5.9C5.68 0.530029 5.5 0.710029 5.5 0.930029V2.14003C5.5 2.36003 5.68 2.54003 5.9 2.54003H15.11C15.33 2.54003 15.51 2.36003 15.51 2.14003V0.920029C15.5 0.700029 15.32 0.530029 15.1 0.530029Z" fill="#646464"/>
<path d="M19.5 25H1.5C0.67 25 0 24.33 0 23.5V1.5C0 0.67 0.67 0 1.5 0H19.5C20.33 0 21 0.67 21 1.5V23.5C21 24.33 20.33 25 19.5 25ZM1.5 1C1.22 1 1 1.22 1 1.5V23.5C1 23.78 1.22 24 1.5 24H19.5C19.78 24 20 23.78 20 23.5V1.5C20 1.22 19.78 1 19.5 1H1.5Z" fill="#646464"/>
</svg>
