<svg width="19" height="26" viewBox="0 0 19 26" fill="none" xmlns="http://www.w3.org/2000/svg">
<path d="M16.1167 21.2746H2.47244C2.25664 21.2746 2.08008 21.0921 2.08008 20.869V20.6053C2.08008 20.3822 2.25664 20.1997 2.47244 20.1997H16.1167C16.3325 20.1997 16.5091 20.3822 16.5091 20.6053V20.869C16.5091 21.0921 16.3325 21.2746 16.1167 21.2746Z" fill="#9BC83F"/>
<path d="M17.5581 26H1.44192C0.647393 26 0 25.3308 0 24.5094V3.59989C0 2.77852 0.647393 2.10925 1.44192 2.10925H17.5581C18.3526 2.10925 19 2.77852 19 3.59989V24.5196C19 25.3308 18.3526 26 17.5581 26ZM1.44192 3.05231C1.15746 3.05231 0.922044 3.29568 0.922044 3.58975V24.5094C0.922044 24.8035 1.15746 25.0469 1.44192 25.0469H17.5581C17.8425 25.0469 18.078 24.8035 18.078 24.5094V3.59989C18.078 3.30582 17.8425 3.06245 17.5581 3.06245H1.44192V3.05231Z" fill="#9BC83F"/>
<path d="M9.29905 13.9228C9.17153 13.9228 9.04402 13.9126 8.90669 13.9025C6.76833 13.6794 5.1989 11.6716 5.40489 9.42044C5.51278 8.31514 6.01304 7.32138 6.837 6.62169C7.65114 5.94229 8.65166 5.61779 9.6816 5.72934C11.82 5.95243 13.3894 7.96023 13.1834 10.2114C13.0755 11.3167 12.5753 12.3105 11.7513 13.0101C11.0451 13.5983 10.1917 13.9228 9.29905 13.9228ZM9.28924 6.65211C8.61242 6.65211 7.96503 6.89548 7.42554 7.3518C6.79776 7.88924 6.4054 8.64977 6.32693 9.50157C6.16018 11.2356 7.36668 12.7871 9.00478 12.9594C9.77969 13.0406 10.5546 12.7972 11.1628 12.28C11.7905 11.7426 12.1829 10.9821 12.2614 10.1201C12.4281 8.38612 11.2216 6.83464 9.58351 6.66225C9.48542 6.66225 9.38733 6.65211 9.28924 6.65211Z" fill="#9BC83F"/>
<path d="M17.5966 3.07257H1.40201C1.14697 3.07257 0.940984 2.86976 0.931175 2.61625C0.911557 2.36274 1.08812 2.12951 1.33334 2.09909L16.3509 0.0203061C16.7629 -0.0303959 17.1552 0.0811485 17.4691 0.35494C17.783 0.61859 17.9694 1.01407 17.9988 1.42982L18.0675 2.56555C18.0773 2.69737 18.0282 2.8292 17.94 2.9306C17.8517 3.03201 17.7242 3.07257 17.5966 3.07257ZM8.53314 2.08895H17.0866L17.0473 1.47038C17.0375 1.32842 16.9787 1.19659 16.861 1.09519C16.7629 1.01407 16.6255 0.973504 16.4882 0.993785L8.53314 2.08895Z" fill="#9BC83F"/>
</svg>
