<svg width="27" height="26" viewBox="0 0 27 26" fill="none" xmlns="http://www.w3.org/2000/svg">
<g clip-path="url(#clip0)">
<path d="M22.7454 25.8375H4.25448C1.96357 25.8375 0.163574 24.05 0.163574 21.775V4.22501C0.163574 1.95001 1.96357 0.162506 4.25448 0.162506H22.7454C25.0363 0.162506 26.8363 1.95001 26.8363 4.22501V21.6938C26.8363 23.9688 25.0363 25.8375 22.7454 25.8375Z" stroke="#9BC83F" stroke-width="0.438" stroke-miterlimit="10"/>
<path d="M18.1636 9.58751H2.45447C2.29083 9.58751 2.1272 9.42501 2.1272 9.26251V5.76876C2.1272 5.60626 2.29083 5.44376 2.45447 5.44376H18.1636C18.3272 5.44376 18.4908 5.60626 18.4908 5.76876V9.26251C18.409 9.42501 18.3272 9.58751 18.1636 9.58751Z" stroke="#9BC83F" stroke-width="0.29" stroke-miterlimit="10"/>
<path d="M18.1636 15.0312H2.45447C2.29083 15.0312 2.1272 14.8687 2.1272 14.7062V11.2125C2.1272 11.05 2.29083 10.8875 2.45447 10.8875H18.1636C18.3272 10.8875 18.4908 11.05 18.4908 11.2125V14.7062C18.409 14.95 18.3272 15.0312 18.1636 15.0312Z" stroke="#9BC83F" stroke-width="0.29" stroke-miterlimit="10"/>
<path d="M18.1636 20.6375H2.45447C2.29083 20.6375 2.1272 20.475 2.1272 20.3125V16.8187C2.1272 16.6562 2.29083 16.4937 2.45447 16.4937H18.1636C18.3272 16.4937 18.4908 16.6562 18.4908 16.8187V20.3125C18.409 20.475 18.3272 20.6375 18.1636 20.6375Z" stroke="#9BC83F" stroke-width="0.29" stroke-miterlimit="10"/>
<path d="M21.4363 7.71873C21.7636 7.88123 22.0091 8.12498 22.1727 8.36873C22.3363 8.53123 22.5818 8.53123 22.6636 8.28748C22.9091 7.71873 23.2363 7.06873 23.7273 6.58123C23.9727 6.33748 23.5636 5.93123 23.3182 6.17498C22.8273 6.82498 22.4182 7.47498 22.1727 8.20623C22.3363 8.20623 22.5 8.12498 22.6636 8.12498C22.4182 7.71873 22.0909 7.47498 21.7636 7.23123C21.4363 7.06873 21.1091 7.55623 21.4363 7.71873Z" fill="#9BC83F"/>
<path d="M23.0728 8.69374H21.3546C21.191 8.69374 21.0273 8.53124 21.0273 8.36874V6.66249C21.0273 6.49999 21.191 6.33749 21.3546 6.33749H23.0728C23.2364 6.33749 23.4001 6.49999 23.4001 6.66249V8.36874C23.4001 8.53124 23.3183 8.69374 23.0728 8.69374Z" stroke="#9BC83F" stroke-width="0.284" stroke-miterlimit="10"/>
<path d="M21.4363 18.6063C21.7636 18.7688 22.009 19.0125 22.1726 19.2563C22.3363 19.4188 22.5817 19.4188 22.6636 19.175C22.909 18.525 23.2363 17.875 23.6454 17.3875C23.8908 17.1438 23.4817 16.7375 23.2363 16.9813C22.7454 17.6313 22.3363 18.2813 22.0908 19.0125C22.2545 19.0125 22.4181 18.9313 22.5817 18.9313C22.3363 18.525 22.009 18.2813 21.6817 18.0375C21.4363 17.9563 21.109 18.4438 21.4363 18.6063Z" fill="#9BC83F"/>
<path d="M23.0728 19.5813H21.3546C21.191 19.5813 21.0273 19.4188 21.0273 19.2563V17.55C21.0273 17.3875 21.191 17.225 21.3546 17.225H23.0728C23.2364 17.225 23.4001 17.3875 23.4001 17.55V19.2563C23.4001 19.4188 23.3183 19.5813 23.0728 19.5813Z" stroke="#9BC83F" stroke-width="0.284" stroke-miterlimit="10"/>
<path d="M23.2364 14.3812H21.5182C21.3546 14.3812 21.1909 14.2187 21.1909 14.0562V12.35C21.1909 12.1875 21.3546 12.025 21.5182 12.025H23.2364C23.4 12.025 23.5636 12.1875 23.5636 12.35V14.0562C23.5636 14.2187 23.4 14.3812 23.2364 14.3812Z" stroke="#9BC83F" stroke-width="0.284" stroke-miterlimit="10"/>
<path d="M22.9908 11.1313C22.5817 11.7 22.2544 12.35 22.009 13C21.8453 13.325 22.4181 13.4875 22.4999 13.1625C22.7453 12.5125 23.0726 11.9438 23.3999 11.375C23.6453 11.05 23.1544 10.8063 22.9908 11.1313Z" fill="#9BC83F"/>
<path d="M22.0909 13.975C22.4182 13.975 22.4182 13.4062 22.0909 13.4062C21.7636 13.4875 21.7636 13.975 22.0909 13.975Z" fill="#9BC83F"/>
</g>
<defs>
<clipPath id="clip0">
<rect width="27" height="26" fill="white"/>
</clipPath>
</defs>
</svg>
