<svg width="60" height="60" viewBox="0 0 60 60" fill="none" xmlns="http://www.w3.org/2000/svg">
<g clip-path="url(#clip0)">
<path d="M49.8243 7.50439C44.341 2.67135 37.2935 0 30 0C27.4517 0 24.9033 0.316344 22.4605 0.949033C21.6872 1.14236 20.9139 1.3884 20.0703 1.68717C17.4341 2.61863 14.9561 3.90158 12.6538 5.51845C12.0562 5.95782 11.4763 6.39719 10.9315 6.85413C3.98945 12.5659 0 21.0018 0 30C0 41.0193 6.02812 51.1248 15.7118 56.3796C16.1863 56.6257 16.696 56.8893 17.2935 57.1705C21.283 59.0334 25.5536 59.9824 29.9824 59.9824C32.9174 59.9824 35.8348 59.5606 38.6292 58.717C38.6819 58.717 38.7346 58.7346 38.7873 58.7346C38.8928 58.7346 39.0158 58.717 39.1213 58.6819C39.5606 58.5413 40 58.4007 40.4394 58.2425C45.2021 56.4851 49.4903 53.5149 52.8295 49.6485C53.181 49.2443 53.5149 48.8225 53.8313 48.4183C53.9543 48.2601 54.0246 48.0668 54.0422 47.8735C57.9086 42.6714 59.9648 36.5026 59.9648 30C59.9648 22.1617 56.9596 14.7452 51.4763 9.10369C50.9666 8.5413 50.4042 8.01406 49.8243 7.50439ZM53.304 45.0615C52.8119 43.3919 52.4605 42.0562 52.4429 41.7575C52.4077 41.283 52.355 40.8084 52.2671 40.3691C52.1441 39.6661 52.4429 38.7522 52.7768 37.7856C53.2865 36.2566 53.884 34.5343 53.1634 32.6538C52.7065 31.4235 52.0387 30.7206 51.4938 30.1582C50.8612 29.4903 50.7206 29.3497 50.8612 28.4007C51.0369 27.188 51.5466 26.7311 52.4956 25.8875C52.6186 25.7821 52.7592 25.659 52.8822 25.536C53.0756 25.3603 53.2689 25.1845 53.4622 24.9736C53.638 24.7979 53.7961 24.6046 53.9719 24.4112C54.1476 24.2004 54.3058 23.9895 54.464 23.761C55.993 21.529 55.3603 19.6309 54.833 18.717C54.3234 17.7856 53.4798 17.0123 52.5132 16.3972C50.4218 15.0088 47.5923 14.3585 45.7821 14.4464C43.0756 14.587 41.8805 16.1687 41.0896 17.2232C40.6854 17.768 40.4218 18.1019 40.1054 18.2425C40.0351 18.2425 39.8946 18.2074 39.8243 18.2074C39.1916 18.1195 37.9965 17.9262 36.6784 18.8928C35.6063 19.6837 34.7803 21.0193 34.341 22.0211C33.8664 23.1634 33.6907 24.2004 33.5325 25.1318C33.304 26.5202 33.1459 27.4341 32.1265 28.3656C30.703 29.6661 29.9473 29.5431 28.1195 29.2091C27.3638 29.0685 26.5202 28.9279 25.5185 28.8752C21.283 28.6643 15.9754 30.3691 14.9209 35.8524C14.3234 38.9631 15.3954 41.5817 17.891 43.1986C18.2425 43.4446 18.6292 43.6555 19.051 43.8664C19.42 44.0422 19.7715 44.2004 20.123 44.3585C20.8963 44.71 21.529 44.9912 22.109 45.3779C22.4605 45.6239 22.7944 45.9051 23.1107 46.2742C23.4622 46.6608 23.7434 47.0299 23.9895 47.3462C24.6046 48.1371 25.1845 48.8752 26.1511 49.4728C26.7311 49.8594 27.4692 50.1933 28.4534 50.4745C29.5255 50.7733 30.6151 51.3181 31.652 51.9859C33.638 53.304 35.4833 55.1494 36.8541 56.9596C34.6221 57.522 32.3199 57.8207 30 57.8207C26.2039 57.8207 22.5308 57.065 19.0685 55.5712C19.1037 55.3427 19.1388 55.1142 19.174 54.8682C19.174 54.8506 19.174 54.8506 19.174 54.833C19.2091 54.587 19.2267 54.3585 19.2267 54.1125C19.2267 54.0246 19.2267 53.9367 19.2267 53.8664C19.2267 53.6907 19.2443 53.5325 19.2267 53.3568C19.2267 53.2513 19.2267 53.1634 19.2267 53.058C19.2267 52.8998 19.2091 52.7417 19.2091 52.5835C19.2091 52.478 19.1916 52.3726 19.1916 52.2847C19.174 52.1265 19.1564 51.9684 19.1388 51.8102C19.1213 51.7047 19.1213 51.6169 19.1037 51.5114C19.0685 51.3357 19.051 51.1599 19.0158 50.9842C18.9982 50.8963 18.9807 50.8084 18.9631 50.7206C18.9104 50.4569 18.8401 50.1933 18.7698 49.9473C18.0316 47.2408 16.5026 46.4499 15.1318 45.7294C14.5343 45.413 13.9895 45.1318 13.3919 44.6397C12.3902 43.8137 12.4605 43.1986 13.181 41.1248C13.4095 40.4569 13.638 39.7715 13.7961 39.0334C14.4112 35.9227 13.1986 31.7926 10.8436 29.0158C9.57821 27.522 8.98067 26.1511 9.22671 25.3251C9.24429 25.2548 9.27944 25.2021 9.29701 25.1494C9.38489 24.9736 9.52548 24.7979 9.71881 24.6397C9.9297 24.464 10.1757 24.3058 10.4921 24.1652C10.5975 24.1125 10.703 24.0773 10.8084 24.0246C11.406 23.7786 12.4253 23.6028 13.3919 23.4271C16.2214 22.9174 20.9315 22.0914 20.6503 17.6977C20.5624 16.239 19.7012 15.3251 19.0685 14.6749C18.7698 14.3585 18.5062 14.0949 18.4359 13.8664C18.2953 13.4271 18.348 12.8471 18.4007 12.1617C18.4534 11.4587 18.5413 10.6678 18.3831 9.82425C18.348 9.57821 18.2953 9.33216 18.2425 9.12127C18.225 9.05097 18.2074 8.98067 18.1898 8.91037C18.1547 8.76977 18.1195 8.6116 18.0668 8.48858C18.0492 8.41828 18.0141 8.34798 17.9965 8.27768C17.9613 8.15466 17.9086 8.03164 17.8735 7.92619C17.8559 7.85589 17.8207 7.80316 17.8032 7.73286C17.7504 7.60984 17.6977 7.50439 17.645 7.39895C17.6274 7.34622 17.5923 7.31107 17.5747 7.25835C17.5044 7.02988 17.4165 6.90685 17.3286 6.78383C17.3286 6.76626 17.3111 6.74868 17.2935 6.73111C17.2056 6.62566 17.1353 6.53779 17.0475 6.44991C17.0123 6.41476 16.9772 6.37961 16.942 6.34446C16.8717 6.27417 16.7838 6.22144 16.7135 6.16872C16.6784 6.13357 16.6257 6.09842 16.5905 6.06327C16.5202 6.01055 16.4323 5.9754 16.362 5.92267C16.3269 5.9051 16.3093 5.88752 16.2742 5.86995C17.5571 5.13181 18.8928 4.5167 20.2812 3.98946C20.3339 4.00703 20.3866 4.04218 20.4394 4.05975C21.4587 4.41125 22.0738 5.39543 22.8647 6.66081C23.6204 7.87346 24.4815 9.26186 25.9227 10.2812C27.3286 11.2654 28.6819 11.7575 30.0527 11.7575C31.5817 11.7575 32.8822 11.1775 34.1301 10.5975L33.6731 9.57821L34.1828 10.58C34.833 10.2812 35.5009 9.98243 36.2214 9.75395C38.9982 8.87522 41.3532 9.59578 44.3409 10.5097C45.1142 10.7557 45.8172 10.9666 46.5729 11.1599C46.7311 11.1951 46.8893 11.2302 47.0475 11.2654C47.1002 11.2654 47.1529 11.283 47.2056 11.283C47.3111 11.3005 47.4165 11.3181 47.522 11.3181C47.5923 11.3181 47.645 11.3181 47.7153 11.3181C47.8207 11.3181 47.9086 11.3181 48.0141 11.3181C48.0844 11.3181 48.1547 11.3181 48.225 11.3181C48.3304 11.3181 48.4183 11.3181 48.5237 11.3005C48.594 11.3005 48.6643 11.283 48.7346 11.283C48.8401 11.283 48.9279 11.2654 49.0334 11.2478C49.1037 11.2478 49.174 11.2302 49.2443 11.2302C49.3497 11.2127 49.4376 11.2127 49.5431 11.1951C49.6134 11.1775 49.6837 11.1775 49.754 11.1599C49.8594 11.1424 49.9473 11.1248 50.0527 11.1072C50.123 11.0896 50.1933 11.0896 50.2812 11.0721C50.2988 11.0721 50.3339 11.0721 50.3515 11.0545C55.1494 16.2039 57.8032 22.8998 57.8032 29.9648C57.7504 35.413 56.2214 40.58 53.304 45.0615Z" fill="#A8E3F1"/>
</g>
<defs>
<clipPath id="clip0">
<rect width="60" height="60" fill="white"/>
</clipPath>
</defs>
</svg>
