<svg width="27" height="26" viewBox="0 0 27 26" fill="none" xmlns="http://www.w3.org/2000/svg">
<g clip-path="url(#clip0)">
<path d="M24.5454 5.44373H11.2909C11.1273 5.44373 10.9636 5.28123 10.9636 5.11873V4.30623C10.9636 4.14373 11.1273 3.98123 11.2909 3.98123H24.5454C24.7091 3.98123 24.8727 4.14373 24.8727 4.30623V5.11873C24.8727 5.36248 24.7091 5.44373 24.5454 5.44373Z" stroke="#ACACAC" stroke-width="0.29" stroke-miterlimit="10"/>
<path d="M24.5454 8.93751H11.2909C11.1273 8.93751 10.9636 8.77501 10.9636 8.61251V7.80001C10.9636 7.63751 11.1273 7.47501 11.2909 7.47501H24.5454C24.7091 7.47501 24.8727 7.63751 24.8727 7.80001V8.61251C24.8727 8.85626 24.7091 8.93751 24.5454 8.93751Z" stroke="#ACACAC" stroke-width="0.29" stroke-miterlimit="10"/>
<path d="M24.5454 12.35H11.2909C11.1273 12.35 10.9636 12.1875 10.9636 12.025V11.2125C10.9636 11.05 11.1273 10.8875 11.2909 10.8875H24.5454C24.7091 10.8875 24.8727 11.05 24.8727 11.2125V12.025C24.8727 12.2687 24.7091 12.35 24.5454 12.35Z" stroke="#ACACAC" stroke-width="0.29" stroke-miterlimit="10"/>
<path d="M24.5454 16.4937H2.2909C2.12726 16.4937 1.96362 16.3312 1.96362 16.1687V15.3562C1.96362 15.1937 2.12726 15.0312 2.2909 15.0312H24.5454C24.7091 15.0312 24.8727 15.1937 24.8727 15.3562V16.1687C24.8727 16.3312 24.7091 16.4937 24.5454 16.4937Z" stroke="#ACACAC" stroke-width="0.29" stroke-miterlimit="10"/>
<path d="M24.5454 19.4188H2.2909C2.12726 19.4188 1.96362 19.2563 1.96362 19.0938V18.2813C1.96362 18.1188 2.12726 17.9563 2.2909 17.9563H24.5454C24.7091 17.9563 24.8727 18.1188 24.8727 18.2813V19.0938C24.8727 19.2563 24.7091 19.4188 24.5454 19.4188Z" stroke="#ACACAC" stroke-width="0.29" stroke-miterlimit="10"/>
<path d="M24.5454 22.3438H2.2909C2.12726 22.3438 1.96362 22.1813 1.96362 22.0188V21.2063C1.96362 21.0438 2.12726 20.8813 2.2909 20.8813H24.5454C24.7091 20.8813 24.8727 21.0438 24.8727 21.2063V22.0188C24.8727 22.1813 24.7091 22.3438 24.5454 22.3438Z" stroke="#ACACAC" stroke-width="0.29" stroke-miterlimit="10"/>
<path d="M22.7454 25.8375H4.25448C1.96357 25.8375 0.163574 24.05 0.163574 21.775V4.22501C0.163574 1.95001 1.96357 0.162506 4.25448 0.162506H22.7454C25.0363 0.162506 26.8363 1.95001 26.8363 4.22501V21.6938C26.8363 23.9688 25.0363 25.8375 22.7454 25.8375Z" stroke="#ACACAC" stroke-width="0.438" stroke-miterlimit="10"/>
<path d="M5.89079 7.31251C7.20121 7.31251 8.26352 6.25758 8.26352 4.95626C8.26352 3.65494 7.20121 2.60001 5.89079 2.60001C4.58037 2.60001 3.51807 3.65494 3.51807 4.95626C3.51807 6.25758 4.58037 7.31251 5.89079 7.31251Z" stroke="#ACACAC" stroke-width="0.29" stroke-miterlimit="10"/>
<path d="M9.81817 11.7813C9.81817 13.975 8.09999 13 5.8909 13C3.6818 13 1.96362 13.975 1.96362 11.7813C1.96362 9.58751 3.6818 7.88126 5.8909 7.88126C8.09999 7.88126 9.81817 9.66876 9.81817 11.7813Z" stroke="#ACACAC" stroke-width="0.29" stroke-miterlimit="10"/>
</g>
<defs>
<clipPath id="clip0">
<rect width="27" height="26" fill="white"/>
</clipPath>
</defs>
</svg>
