<svg width="27" height="27" viewBox="0 0 27 27" fill="none" xmlns="http://www.w3.org/2000/svg">
<g clip-path="url(#clip0)">
<path d="M22.7454 26.8369H4.25448C1.96357 26.8369 0.163574 25.0423 0.163574 22.7583V5.22055C0.163574 2.93656 1.96357 1.142 4.25448 1.142H22.7454C25.0363 1.142 26.8363 2.93656 26.8363 5.22055V22.7583C26.8363 25.0423 25.0363 26.8369 22.7454 26.8369Z" stroke="#ACACAC" stroke-width="0.438" stroke-miterlimit="10"/>
<path d="M4.0548 5.95464C4.30025 6.11779 4.46389 6.28093 4.62752 6.52564C4.79116 6.68878 5.03661 6.68878 5.03661 6.44407C5.20025 5.95464 5.4457 5.46522 5.77298 5.05736C5.93661 4.81265 5.60934 4.48637 5.44571 4.73108C5.11843 5.2205 4.79116 5.70993 4.62752 6.28093C4.79116 6.28093 4.9548 6.28093 5.03661 6.19936C4.87298 5.95464 4.62752 5.70993 4.30025 5.54679C4.0548 5.38365 3.80934 5.7915 4.0548 5.95464Z" fill="#ACACAC"/>
<path d="M4.05453 11.1753C4.29998 11.3384 4.46362 11.5015 4.62725 11.6647C4.79089 11.8278 5.03634 11.8278 5.03634 11.5831C5.19998 11.0937 5.44543 10.6043 5.77271 10.1964C5.93634 9.95169 5.60907 9.6254 5.44544 9.87012C5.03634 10.3595 4.70907 10.849 4.54543 11.5015C4.70907 11.5015 4.87271 11.5015 4.95453 11.42C4.79089 11.0937 4.54543 10.9305 4.21816 10.6858C4.05452 10.6043 3.80907 11.0121 4.05453 11.1753Z" fill="#ACACAC"/>
<path d="M4.05453 16.3958C4.29998 16.559 4.46362 16.7221 4.62725 16.8853C4.79089 17.0484 5.03634 17.0484 5.03634 16.8037C5.19998 16.3143 5.44543 15.8248 5.77271 15.417C5.93634 15.1723 5.60907 14.846 5.44544 15.0907C5.03634 15.5801 4.70907 16.0695 4.54543 16.7221C4.70907 16.7221 4.87271 16.7221 4.95453 16.6405C4.79089 16.3143 4.54543 16.1511 4.21816 15.9064C4.05452 15.7433 3.80907 16.2327 4.05453 16.3958Z" fill="#ACACAC"/>
<path d="M5.28181 22.2689H4.13635C3.97272 22.2689 3.80908 22.1058 3.80908 21.9426V20.8006C3.80908 20.6375 3.97272 20.4744 4.13635 20.4744H5.28181C5.44545 20.4744 5.60908 20.6375 5.60908 20.8006V21.9426C5.60908 22.1058 5.52726 22.2689 5.28181 22.2689Z" stroke="#ACACAC" stroke-width="0.219" stroke-miterlimit="10"/>
<path d="M5.28181 17.1299H4.13635C3.97272 17.1299 3.80908 16.9667 3.80908 16.8036V15.6616C3.80908 15.4985 3.97272 15.3353 4.13635 15.3353H5.28181C5.44545 15.3353 5.60908 15.4985 5.60908 15.6616V16.8036C5.60908 16.9667 5.52726 17.1299 5.28181 17.1299Z" stroke="#ACACAC" stroke-width="0.219" stroke-miterlimit="10"/>
<path d="M5.28181 11.9093H4.13635C3.97272 11.9093 3.80908 11.7462 3.80908 11.583V10.441C3.80908 10.2779 3.97272 10.1147 4.13635 10.1147H5.28181C5.44545 10.1147 5.60908 10.2779 5.60908 10.441V11.583C5.60908 11.7462 5.52726 11.9093 5.28181 11.9093Z" stroke="#ACACAC" stroke-width="0.219" stroke-miterlimit="10"/>
<path d="M5.28181 6.68885H4.13635C3.97272 6.68885 3.80908 6.52571 3.80908 6.36257V5.22057C3.80908 5.05743 3.97272 4.89429 4.13635 4.89429H5.28181C5.44545 4.89429 5.60908 5.05743 5.60908 5.22057V6.36257C5.60908 6.52571 5.52726 6.68885 5.28181 6.68885Z" stroke="#ACACAC" stroke-width="0.219" stroke-miterlimit="10"/>
<path d="M22.7092 22.2689H7.00012C6.83649 22.2689 6.67285 22.1058 6.67285 21.9426V20.8006C6.67285 20.6375 6.83649 20.4744 7.00012 20.4744H22.7092C22.8729 20.4744 23.0365 20.6375 23.0365 20.8006V21.9426C23.0365 22.1058 22.8729 22.2689 22.7092 22.2689Z" stroke="#ACACAC" stroke-width="0.219" stroke-miterlimit="10"/>
<path d="M22.7092 17.1299H7.00012C6.83649 17.1299 6.67285 16.9667 6.67285 16.8036V15.6616C6.67285 15.4985 6.83649 15.3353 7.00012 15.3353H22.7092C22.8729 15.3353 23.0365 15.4985 23.0365 15.6616V16.8036C23.0365 16.9667 22.8729 17.1299 22.7092 17.1299Z" stroke="#ACACAC" stroke-width="0.219" stroke-miterlimit="10"/>
<path d="M22.7092 11.9093H7.00012C6.83649 11.9093 6.67285 11.7462 6.67285 11.583V10.441C6.67285 10.2779 6.83649 10.1147 7.00012 10.1147H22.7092C22.8729 10.1147 23.0365 10.2779 23.0365 10.441V11.583C23.0365 11.7462 22.8729 11.9093 22.7092 11.9093Z" stroke="#ACACAC" stroke-width="0.219" stroke-miterlimit="10"/>
<path d="M22.7092 6.68885H7.00012C6.83649 6.68885 6.67285 6.52571 6.67285 6.36257V5.22057C6.75467 5.05743 6.83649 4.89429 7.00012 4.89429H22.7092C22.8729 4.89429 23.0365 5.05743 23.0365 5.22057V6.36257C23.0365 6.52571 22.8729 6.68885 22.7092 6.68885Z" stroke="#ACACAC" stroke-width="0.219" stroke-miterlimit="10"/>
<path d="M18.4909 2.28399H8.59094C8.42731 2.28399 8.26367 2.12085 8.26367 1.95771V0.407857C8.26367 0.244715 8.42731 0.0815735 8.59094 0.0815735H18.4909C18.6546 0.0815735 18.8182 0.244715 18.8182 0.407857V1.95771C18.8182 2.12085 18.6546 2.28399 18.4909 2.28399Z" fill="white" stroke="#ACACAC" stroke-width="0.1937" stroke-miterlimit="10"/>
</g>
<defs>
<clipPath id="clip0">
<rect width="27" height="27" fill="white"/>
</clipPath>
</defs>
</svg>
