<svg width="242" height="204" viewBox="0 0 242 204" fill="none" xmlns="http://www.w3.org/2000/svg">
<g clip-path="url(#clip0)">
<path d="M202.143 178.794L178.796 178.744C178.796 178.744 162.336 178.811 162.151 167.089C161.966 154.982 171.154 154.612 178.04 154.612C184.927 154.612 202.915 155.486 202.915 141.329C202.915 127.173 178.41 129.49 178.41 129.49L80.1182 129.356L29.2424 129.574C29.2424 129.574 5.12305 129.356 5.12305 141.463C5.12305 156.191 29.2424 154.562 29.2424 154.562L52.5892 154.612C52.5892 154.612 69.0495 154.545 69.2342 166.267C69.419 178.374 61.5919 178.744 54.7055 178.744C47.819 178.744 29.8303 177.87 29.8303 192.027C29.8303 206.183 54.336 203.866 54.336 203.866L151.267 204L202.143 203.782C202.143 203.782 226.262 204 226.262 191.892C226.262 178.122 202.143 178.794 202.143 178.794Z" fill="#E6E6E6"/>
<g opacity="0.15">
<path opacity="0.15" d="M6.44132 82.2351C6.74412 80.6501 5.62316 79.1042 3.93759 78.7824C2.25202 78.4605 0.640132 79.4845 0.337332 81.0695C0.0345309 82.6545 1.15548 84.2004 2.84105 84.5223C4.52662 84.8441 6.13852 83.8202 6.44132 82.2351Z" stroke="#67CDFD" stroke-width="0.3576" stroke-miterlimit="10"/>
<path opacity="0.15" d="M180.773 22.0103C181.076 20.4252 179.955 18.8794 178.27 18.5575C176.584 18.2356 174.972 19.2596 174.669 20.8447C174.367 22.4297 175.488 23.9755 177.173 24.2974C178.859 24.6193 180.471 23.5953 180.773 22.0103Z" stroke="#67CDFD" stroke-width="0.3576" stroke-miterlimit="10"/>
<path opacity="0.15" d="M241.665 133.604C241.362 135.2 239.75 136.224 238.07 135.905C236.391 135.586 235.265 134.041 235.568 132.446C235.87 130.85 237.482 129.826 239.162 130.145C240.842 130.464 241.967 132.026 241.665 133.604Z" stroke="#67CDFD" stroke-width="0.3576" stroke-miterlimit="10"/>
<path opacity="0.15" d="M91.8918 19.1105C91.7406 19.8662 90.9848 20.3364 90.1954 20.1852C89.406 20.0341 88.8685 19.2952 89.0196 18.5563C89.1708 17.8006 89.9266 17.3304 90.7161 17.4816C91.5055 17.6327 92.0262 18.3716 91.8918 19.1105Z" stroke="#67CDFD" stroke-width="0.3576" stroke-miterlimit="10"/>
<path opacity="0.15" d="M221.943 174.699C222.086 173.952 221.559 173.224 220.766 173.072C219.974 172.921 219.216 173.404 219.073 174.151C218.93 174.898 219.457 175.626 220.25 175.777C221.042 175.929 221.801 175.446 221.943 174.699Z" stroke="#67CDFD" stroke-width="0.3576" stroke-miterlimit="10"/>
<path opacity="0.15" d="M49.8859 116.98C49.7348 117.735 48.9789 118.206 48.1895 118.054C47.4001 117.903 46.8626 117.164 47.0138 116.425C47.1649 115.67 47.9208 115.2 48.7102 115.351C49.4996 115.502 50.0203 116.224 49.8859 116.98Z" stroke="#67CDFD" stroke-width="0.3576" stroke-miterlimit="10"/>
<path opacity="0.15" d="M233.988 65.1735C233.837 65.9292 233.081 66.3994 232.292 66.2483C231.503 66.0971 230.965 65.3582 231.116 64.6194C231.267 63.8805 232.023 63.3935 232.813 63.5446C233.602 63.6958 234.14 64.4346 233.988 65.1735Z" stroke="#67CDFD" stroke-width="0.3576" stroke-miterlimit="10"/>
</g>
<path d="M29.3602 125.074C29.6457 124.218 30.6199 123.764 31.5269 124.05C32.4339 124.335 32.9378 125.276 32.6522 126.132C32.3667 126.989 31.3925 127.442 30.4855 127.157C29.5785 126.871 29.0746 125.931 29.3602 125.074Z" stroke="#67CDFD" stroke-width="0.3576" stroke-miterlimit="10"/>
<path d="M17.0311 135.015C17.3166 134.159 18.2908 133.706 19.1978 133.991C20.1048 134.277 20.6087 135.217 20.3231 136.073C20.0376 136.93 19.0634 137.383 18.1564 137.098C17.2494 136.795 16.7455 135.872 17.0311 135.015Z" stroke="#67CDFD" stroke-width="0.3576" stroke-miterlimit="10"/>
<path d="M16.2255 119.851C16.511 118.995 17.4852 118.542 18.3922 118.827C19.2992 119.112 19.8031 120.053 19.5175 120.909C19.232 121.766 18.2578 122.219 17.3508 121.934C16.427 121.648 15.9231 120.708 16.2255 119.851Z" stroke="#67CDFD" stroke-width="0.3576" stroke-miterlimit="10"/>
<path d="M0.906083 136.846C1.19162 135.989 2.1658 135.536 3.0728 135.821C3.97979 136.107 4.48368 137.047 4.19814 137.904C3.91261 138.76 2.93843 139.214 2.03143 138.928C1.12443 138.643 0.620547 137.702 0.906083 136.846Z" stroke="#67CDFD" stroke-width="0.3576" stroke-miterlimit="10"/>
<path d="M29.8289 126.384L19.3984 133.857C19.3144 133.924 19.1969 133.873 19.1801 133.773L17.3661 122.085C17.3493 122.034 17.2821 122.001 17.2485 122.051L3.72754 136.191" stroke="#67CDFD" stroke-width="0.3576" stroke-miterlimit="10"/>
<path d="M225.482 113.429C226.204 112.858 227.296 112.975 227.917 113.664C228.539 114.369 228.438 115.394 227.716 115.965C226.993 116.536 225.902 116.418 225.28 115.73C224.659 115.041 224.743 114 225.482 113.429Z" stroke="#67CDFD" stroke-width="0.3576" stroke-miterlimit="10"/>
<path d="M233.291 100.364C234.014 99.793 235.105 99.9106 235.727 100.599C236.348 101.304 236.248 102.329 235.525 102.9C234.803 103.471 233.711 103.353 233.09 102.665C232.468 101.959 232.552 100.935 233.291 100.364Z" stroke="#67CDFD" stroke-width="0.3576" stroke-miterlimit="10"/>
<path d="M210.617 106.829C211.339 106.258 212.431 106.376 213.052 107.064C213.673 107.769 213.573 108.794 212.85 109.365C212.128 109.936 211.036 109.818 210.415 109.13C209.794 108.424 209.878 107.383 210.617 106.829Z" stroke="#67CDFD" stroke-width="0.3576" stroke-miterlimit="10"/>
<path d="M227.917 113.681L233.023 102.9C233.057 102.833 232.99 102.765 232.922 102.782L213.405 107.686" stroke="#67CDFD" stroke-width="0.3576" stroke-miterlimit="10"/>
<path d="M122.888 11.2791C121.931 11.3463 121.091 10.6578 121.007 9.75099C120.923 8.84417 121.628 8.0717 122.569 8.00453C123.509 7.93735 124.366 8.62586 124.45 9.53268C124.534 10.4395 123.845 11.212 122.888 11.2791Z" stroke="#67CDFD" stroke-width="0.3576" stroke-miterlimit="10"/>
<path d="M137.567 18.3995C136.609 18.4667 135.769 17.7782 135.685 16.8713C135.602 15.9645 136.307 15.1921 137.248 15.1249C138.205 15.0577 139.045 15.7462 139.129 16.653C139.213 17.5599 138.507 18.3323 137.567 18.3995Z" stroke="#67CDFD" stroke-width="0.3576" stroke-miterlimit="10"/>
<path d="M123.157 24.6803C122.199 24.7474 121.359 24.0589 121.275 23.1521C121.191 22.2453 121.897 21.4728 122.837 21.4056C123.778 21.3385 124.635 22.027 124.719 22.9338C124.803 23.8406 124.114 24.6299 123.157 24.6803Z" stroke="#67CDFD" stroke-width="0.3576" stroke-miterlimit="10"/>
<path d="M123.964 10.3892L135.536 16.804C135.604 16.8376 135.604 16.9384 135.536 16.972L124.72 22.9502" stroke="#67CDFD" stroke-width="0.3576" stroke-miterlimit="10"/>
<path d="M178.183 52.243C178.082 52.814 177.511 53.1666 176.906 53.0659C176.301 52.9483 175.915 52.3941 176.016 51.84C176.117 51.269 176.688 50.9164 177.292 51.0171C177.897 51.1179 178.283 51.6888 178.183 52.243Z" stroke="#67CDFD" stroke-width="0.3576" stroke-miterlimit="10"/>
<path d="M213.025 35.09C212.789 36.2991 211.58 37.0716 210.304 36.8365C209.027 36.5846 208.187 35.4259 208.406 34.2168C208.641 33.0077 209.85 32.2352 211.127 32.4703C212.403 32.7054 213.243 33.8809 213.025 35.09Z" stroke="#67CDFD" stroke-width="0.3576" stroke-miterlimit="10"/>
<path d="M217.441 33.9313C219.96 44.0238 218.952 52.8401 215.19 53.6125C211.428 54.385 206.322 46.8282 203.802 36.7357C201.283 26.6432 202.291 17.8269 206.053 17.0544C209.815 16.282 214.904 23.822 217.441 33.9313Z" stroke="#67CDFD" stroke-width="0.3576" stroke-miterlimit="10"/>
<path d="M227.523 45.2444C229.39 42.06 223.327 35.0377 213.979 29.5596C204.632 24.0816 195.542 22.2223 193.674 25.4067C191.807 28.5911 197.871 35.6134 207.218 41.0915C216.565 46.5695 225.656 48.4288 227.523 45.2444Z" stroke="#67CDFD" stroke-width="0.3576" stroke-miterlimit="10"/>
<path d="M212.341 41.8229C222.764 39.0379 230.436 33.8748 229.478 30.2908C228.52 26.7068 219.294 26.059 208.872 28.844C198.449 31.629 190.777 36.7921 191.735 40.3762C192.693 43.9602 201.919 44.6079 212.341 41.8229Z" stroke="#67CDFD" stroke-width="0.3576" stroke-miterlimit="10"/>
<path d="M48.3693 30.7094C48.9384 27.7306 46.8441 24.8278 43.6916 24.2258C40.5392 23.6238 37.5223 25.5506 36.9532 28.5293C36.3842 31.5081 38.4784 34.4109 41.6309 35.0129C44.7834 35.6149 47.8003 33.6881 48.3693 30.7094Z" stroke="#67CDFD" stroke-width="0.3576" stroke-miterlimit="10"/>
<path d="M28.7191 39.4471C29.5253 39.6318 30.046 40.3875 29.8612 41.16C29.6932 41.9157 28.887 42.3859 28.0808 42.2179C27.2746 42.0332 26.7539 41.2775 26.9387 40.5051C27.1234 39.7326 27.9128 39.2624 28.7191 39.4471Z" stroke="#67CDFD" stroke-width="0.3576" stroke-miterlimit="10"/>
<path d="M29.5586 40.2528L38.4942 33.7036" stroke="#67CDFD" stroke-width="0.3576" stroke-miterlimit="10"/>
<path d="M29.5589 19.4967C30.3651 19.6815 30.8858 20.4371 30.701 21.2096C30.5331 21.9653 29.7269 22.4355 28.9206 22.2676C28.1144 22.0828 27.5937 21.3272 27.7785 20.5547C27.9633 19.799 28.7527 19.312 29.5589 19.4967Z" stroke="#67CDFD" stroke-width="0.3576" stroke-miterlimit="10"/>
<path d="M30.3809 21.5959L38.0735 26.0629" stroke="#67CDFD" stroke-width="0.3576" stroke-miterlimit="10"/>
<path d="M50.1009 39.1956C50.9071 39.3804 51.4278 40.136 51.243 40.9085C51.0751 41.6642 50.2689 42.1344 49.4626 41.9665C48.6564 41.7817 48.1357 41.0261 48.3205 40.2536C48.5053 39.4811 49.2947 39.0109 50.1009 39.1956Z" stroke="#67CDFD" stroke-width="0.3576" stroke-miterlimit="10"/>
<path d="M49.294 39.296L46.0859 34.2917" stroke="#67CDFD" stroke-width="0.3576" stroke-miterlimit="10"/>
<path d="M53.8128 17.8343C54.619 18.019 55.1397 18.7747 54.955 19.5472C54.787 20.3029 53.9808 20.7731 53.1746 20.6051C52.3683 20.4204 51.8477 19.6647 52.0324 18.8923C52.2004 18.1198 53.0066 17.6496 53.8128 17.8343Z" stroke="#67CDFD" stroke-width="0.3576" stroke-miterlimit="10"/>
<path d="M46.708 25.6094L52.4019 20.1182" stroke="#67CDFD" stroke-width="0.3576" stroke-miterlimit="10"/>
<path d="M39.8206 12.7293C40.6268 12.9141 41.1475 13.6697 40.9628 14.4422C40.7948 15.1979 39.9886 15.6681 39.1824 15.5002C38.3761 15.3154 37.8555 14.5598 38.0402 13.7873C38.225 13.0148 39.0144 12.5446 39.8206 12.7293Z" stroke="#67CDFD" stroke-width="0.3576" stroke-miterlimit="10"/>
<path d="M42.4079 24.1317L39.9893 15.7017" stroke="#67CDFD" stroke-width="0.3576" stroke-miterlimit="10"/>
<path d="M153.317 187.563L150.399 187.545L150.51 169.164L148.595 169.152L148.484 187.534L145.566 187.516C145.465 187.515 145.384 187.576 145.383 187.652L145.37 189.766C145.37 189.842 145.451 189.903 145.552 189.904L153.302 189.951C153.404 189.952 153.485 189.891 153.486 189.815L153.498 187.701C153.499 187.625 153.418 187.563 153.317 187.563Z" fill="white" stroke="#67CDFD" stroke-width="0.907" stroke-miterlimit="10"/>
<path d="M150.444 122.615L150.444 104.055L149.914 104.055L149.915 122.615L150.444 122.615Z" fill="#67CDFD"/>
<path d="M153.653 127.893L146.643 127.851C144.485 127.838 142.732 129.57 142.719 131.727L142.498 168.222C142.495 168.698 142.878 169.086 143.354 169.089L156.454 169.168C156.93 169.171 157.317 168.788 157.32 168.312L157.54 131.817C157.543 129.669 155.811 127.906 153.653 127.893Z" stroke="#67CDFD" stroke-width="0.907" stroke-miterlimit="10"/>
<path d="M153.627 123.932C153.632 123.071 152.765 122.367 151.681 122.361L148.682 122.343C147.608 122.336 146.722 123.03 146.717 123.891L146.693 127.851L153.603 127.893L153.627 123.932Z" fill="white" stroke="#67CDFD" stroke-width="0.5298" stroke-miterlimit="10"/>
<path d="M146.902 146.946L153.174 146.984" stroke="#67CDFD" stroke-width="0.7437" stroke-miterlimit="10"/>
<path d="M146.882 150.4L153.153 150.438" stroke="#67CDFD" stroke-width="0.7437" stroke-miterlimit="10"/>
<path d="M146.861 153.854L153.133 153.892" stroke="#67CDFD" stroke-width="0.7437" stroke-miterlimit="10"/>
<path d="M146.84 157.309L153.111 157.346" stroke="#67CDFD" stroke-width="0.7437" stroke-miterlimit="10"/>
<path d="M146.819 160.762L153.091 160.8" stroke="#67CDFD" stroke-width="0.7437" stroke-miterlimit="10"/>
<path d="M146.799 164.216L153.07 164.254" stroke="#67CDFD" stroke-width="0.7437" stroke-miterlimit="10"/>
<path d="M105.149 118.889C107.802 118.889 109.953 116.745 109.953 114.101C109.953 111.456 107.802 109.313 105.149 109.313C102.496 109.313 100.345 111.456 100.345 114.101C100.345 116.745 102.496 118.889 105.149 118.889Z" fill="white" stroke="#67CDFD" stroke-width="2" stroke-miterlimit="10"/>
<path d="M130.433 126.879C133.086 126.879 135.237 124.736 135.237 122.091C135.237 119.447 133.086 117.303 130.433 117.303C127.78 117.303 125.629 119.447 125.629 122.091C125.629 124.736 127.78 126.879 130.433 126.879Z" fill="white" stroke="#67CDFD" stroke-width="2" stroke-miterlimit="10"/>
<path d="M116.91 106.452C120.76 106.452 123.882 103.341 123.882 99.5033C123.882 95.6656 120.76 92.5544 116.91 92.5544C113.059 92.5544 109.938 95.6656 109.938 99.5033C109.938 103.341 113.059 106.452 116.91 106.452Z" fill="white" stroke="#67CDFD" stroke-width="2" stroke-miterlimit="10"/>
<path d="M92.7803 162.65L85.2777 177.014C85.2777 177.014 82.1737 180.776 84.5914 186.637C87.0091 192.498 90.2847 191.083 90.8306 191.083C91.3765 191.083 129.794 191.13 129.794 191.13C129.794 191.13 135.035 190.896 135.831 185.44C136.626 179.983 135.597 178.74 134.739 177.092C133.881 175.444 127.205 162.65 127.205 162.65H124.974H92.7803Z" fill="#67CDFD"/>
<path d="M134.739 177.185L114.618 138.585L114.181 124.392H106.024L105.384 138.585L85.2784 177.123C81.8001 182.704 84.7637 191.192 90.1761 191.192H111.92V191.13L129.795 191.223C135.207 191.269 138.202 182.797 134.739 177.185Z" stroke="#999999" stroke-miterlimit="10" stroke-linecap="round" stroke-linejoin="round"/>
</g>
<defs>
<clipPath id="clip0">
<rect width="242" height="204" fill="white"/>
</clipPath>
</defs>
</svg>
