<svg width="242" height="204" viewBox="0 0 242 204" fill="none" xmlns="http://www.w3.org/2000/svg">
<g clip-path="url(#clip0)">
<path d="M202.143 178.794L178.796 178.744C178.796 178.744 162.336 178.811 162.151 167.089C161.966 154.982 171.154 154.612 178.04 154.612C184.927 154.612 202.915 155.486 202.915 141.329C202.915 127.173 178.41 129.49 178.41 129.49L80.1182 129.356L29.2424 129.574C29.2424 129.574 5.12305 129.356 5.12305 141.463C5.12305 156.191 29.2424 154.562 29.2424 154.562L52.5892 154.612C52.5892 154.612 69.0495 154.545 69.2342 166.267C69.419 178.374 61.5919 178.744 54.7055 178.744C47.819 178.744 29.8303 177.87 29.8303 192.027C29.8303 206.183 54.336 203.866 54.336 203.866L151.267 204L202.143 203.782C202.143 203.782 226.262 204 226.262 191.893C226.262 178.122 202.143 178.794 202.143 178.794Z" fill="#E6E6E6"/>
<g opacity="0.15">
<path opacity="0.15" d="M6.44132 82.2354C6.74412 80.6503 5.62316 79.1045 3.93759 78.7826C2.25202 78.4607 0.640132 79.4847 0.337332 81.0697C0.0345309 82.6548 1.15548 84.2006 2.84105 84.5225C4.52662 84.8444 6.13852 83.8204 6.44132 82.2354Z" stroke="#67CDFD" stroke-width="0.3576" stroke-miterlimit="10"/>
<path opacity="0.15" d="M180.773 22.0103C181.076 20.4252 179.955 18.8794 178.27 18.5575C176.584 18.2356 174.972 19.2596 174.669 20.8447C174.367 22.4297 175.488 23.9755 177.173 24.2974C178.859 24.6193 180.471 23.5953 180.773 22.0103Z" stroke="#67CDFD" stroke-width="0.3576" stroke-miterlimit="10"/>
<path opacity="0.15" d="M241.666 133.605C241.363 135.2 239.751 136.224 238.071 135.905C236.392 135.586 235.266 134.041 235.569 132.446C235.871 130.851 237.483 129.826 239.163 130.145C240.843 130.464 241.968 132.026 241.666 133.605Z" stroke="#67CDFD" stroke-width="0.3576" stroke-miterlimit="10"/>
<path opacity="0.15" d="M91.8918 19.1106C91.7406 19.8663 90.9848 20.3365 90.1954 20.1854C89.406 20.0342 88.8685 19.2953 89.0196 18.5564C89.1708 17.8008 89.9266 17.3306 90.7161 17.4817C91.5055 17.6328 92.0262 18.3717 91.8918 19.1106Z" stroke="#67CDFD" stroke-width="0.3576" stroke-miterlimit="10"/>
<path opacity="0.15" d="M221.943 174.699C222.086 173.952 221.559 173.224 220.766 173.072C219.974 172.921 219.216 173.404 219.073 174.151C218.93 174.898 219.457 175.626 220.25 175.777C221.042 175.929 221.801 175.446 221.943 174.699Z" stroke="#67CDFD" stroke-width="0.3576" stroke-miterlimit="10"/>
<path opacity="0.15" d="M49.8859 116.98C49.7348 117.735 48.9789 118.206 48.1895 118.054C47.4001 117.903 46.8626 117.164 47.0138 116.426C47.1649 115.67 47.9208 115.2 48.7102 115.351C49.4996 115.502 50.0203 116.224 49.8859 116.98Z" stroke="#67CDFD" stroke-width="0.3576" stroke-miterlimit="10"/>
<path opacity="0.15" d="M233.989 65.1736C233.838 65.9293 233.082 66.3995 232.293 66.2484C231.504 66.0973 230.966 65.3584 231.117 64.6195C231.268 63.8806 232.024 63.3936 232.814 63.5447C233.603 63.6959 234.141 64.4348 233.989 65.1736Z" stroke="#67CDFD" stroke-width="0.3576" stroke-miterlimit="10"/>
</g>
<path d="M29.3592 125.074C29.6447 124.218 30.6189 123.764 31.5259 124.05C32.4329 124.335 32.9368 125.276 32.6513 126.132C32.3657 126.989 31.3915 127.442 30.4846 127.157C29.5776 126.871 29.0737 125.931 29.3592 125.074Z" stroke="#67CDFD" stroke-width="0.3576" stroke-miterlimit="10"/>
<path d="M17.0311 135.016C17.3166 134.159 18.2908 133.706 19.1978 133.991C20.1048 134.277 20.6087 135.217 20.3231 136.074C20.0376 136.93 19.0634 137.383 18.1564 137.098C17.2494 136.796 16.7455 135.872 17.0311 135.016Z" stroke="#67CDFD" stroke-width="0.3576" stroke-miterlimit="10"/>
<path d="M16.2264 119.851C16.512 118.995 17.4862 118.542 18.3932 118.827C19.3001 119.113 19.804 120.053 19.5185 120.909C19.233 121.766 18.2588 122.219 17.3518 121.934C16.428 121.648 15.9241 120.708 16.2264 119.851Z" stroke="#67CDFD" stroke-width="0.3576" stroke-miterlimit="10"/>
<path d="M0.906083 136.846C1.19162 135.989 2.1658 135.536 3.0728 135.822C3.97979 136.107 4.48368 137.047 4.19814 137.904C3.91261 138.76 2.93843 139.214 2.03143 138.928C1.12443 138.643 0.620547 137.702 0.906083 136.846Z" stroke="#67CDFD" stroke-width="0.3576" stroke-miterlimit="10"/>
<path d="M29.8279 126.384L19.3974 133.857C19.3135 133.924 19.1959 133.874 19.1791 133.773L17.3651 122.085C17.3483 122.035 17.2811 122.001 17.2475 122.051L3.72656 136.191" stroke="#67CDFD" stroke-width="0.3576" stroke-miterlimit="10"/>
<path d="M225.482 113.429C226.204 112.858 227.296 112.976 227.917 113.664C228.539 114.369 228.438 115.394 227.716 115.965C226.993 116.536 225.902 116.418 225.28 115.73C224.659 115.041 224.743 114 225.482 113.429Z" stroke="#67CDFD" stroke-width="0.3576" stroke-miterlimit="10"/>
<path d="M233.292 100.364C234.015 99.793 235.106 99.9106 235.728 100.599C236.349 101.304 236.249 102.329 235.526 102.9C234.804 103.471 233.712 103.353 233.091 102.665C232.469 101.959 232.553 100.935 233.292 100.364Z" stroke="#67CDFD" stroke-width="0.3576" stroke-miterlimit="10"/>
<path d="M210.617 106.829C211.339 106.258 212.431 106.376 213.052 107.064C213.673 107.769 213.573 108.794 212.85 109.365C212.128 109.936 211.036 109.818 210.415 109.13C209.794 108.424 209.878 107.383 210.617 106.829Z" stroke="#67CDFD" stroke-width="0.3576" stroke-miterlimit="10"/>
<path d="M227.916 113.681L233.022 102.9C233.056 102.833 232.989 102.765 232.921 102.782L213.404 107.686" stroke="#67CDFD" stroke-width="0.3576" stroke-miterlimit="10"/>
<path d="M123.097 3.57724C122.14 3.64441 121.3 2.9559 121.216 2.04908C121.132 1.14227 121.837 0.369794 122.778 0.302622C123.718 0.235451 124.575 0.923959 124.659 1.83077C124.743 2.73759 124.054 3.51006 123.097 3.57724Z" stroke="#67CDFD" stroke-width="0.3576" stroke-miterlimit="10"/>
<path d="M137.777 10.6976C136.819 10.7648 135.979 10.0763 135.895 9.16944C135.811 8.26263 136.517 7.49016 137.458 7.42298C138.415 7.35581 139.255 8.04432 139.339 8.95114C139.423 9.85795 138.717 10.6304 137.777 10.6976Z" stroke="#67CDFD" stroke-width="0.3576" stroke-miterlimit="10"/>
<path d="M123.366 16.9782C122.409 17.0454 121.569 16.3569 121.485 15.4501C121.401 14.5433 122.107 13.7708 123.047 13.7036C123.988 13.6365 124.845 14.325 124.929 15.2318C125.012 16.1386 124.324 16.9279 123.366 16.9782Z" stroke="#67CDFD" stroke-width="0.3576" stroke-miterlimit="10"/>
<path d="M124.174 2.68738L135.746 9.10226C135.814 9.13585 135.814 9.2366 135.746 9.27019L124.93 15.2485" stroke="#67CDFD" stroke-width="0.3576" stroke-miterlimit="10"/>
<path d="M240.167 23.4155C240.066 23.9865 239.495 24.3391 238.891 24.2384C238.286 24.1208 237.9 23.5666 238 23.0125C238.101 22.4415 238.672 22.0889 239.277 22.1896C239.882 22.2904 240.268 22.8613 240.167 23.4155Z" stroke="#67CDFD" stroke-width="0.3576" stroke-miterlimit="10"/>
<path d="M228.025 31.0901C227.789 32.2992 226.58 33.0717 225.304 32.8366C224.027 32.5847 223.187 31.426 223.406 30.2169C223.641 29.0078 224.85 28.2353 226.127 28.4704C227.403 28.7055 228.243 29.881 228.025 31.0901Z" stroke="#67CDFD" stroke-width="0.3576" stroke-miterlimit="10"/>
<path d="M232.44 29.9313C234.959 40.0238 233.951 48.8401 230.189 49.6125C226.427 50.385 221.321 42.8282 218.801 32.7357C216.282 22.6432 217.29 13.8269 221.052 13.0544C224.814 12.282 229.903 19.822 232.44 29.9313Z" stroke="#67CDFD" stroke-width="0.3576" stroke-miterlimit="10"/>
<path d="M242.524 41.2444C244.391 38.06 238.328 31.0377 228.98 25.5596C219.633 20.0816 210.542 18.2223 208.675 21.4067C206.808 24.5911 212.872 31.6134 222.219 37.0915C231.566 42.5695 240.657 44.4288 242.524 41.2444Z" stroke="#67CDFD" stroke-width="0.3576" stroke-miterlimit="10"/>
<path d="M227.341 37.823C237.764 35.0381 245.436 29.8749 244.478 26.2909C243.52 22.7069 234.294 22.0592 223.872 24.8442C213.449 27.6292 205.777 32.7923 206.735 36.3763C207.693 39.9603 216.919 40.608 227.341 37.823Z" stroke="#67CDFD" stroke-width="0.3576" stroke-miterlimit="10"/>
<path d="M48.3703 30.7095C48.9394 27.7307 46.8451 24.8279 43.6926 24.2259C40.5401 23.6239 37.5233 25.5507 36.9542 28.5294C36.3851 31.5082 38.4794 34.411 41.6319 35.013C44.7843 35.615 47.8012 33.6882 48.3703 30.7095Z" stroke="#67CDFD" stroke-width="0.3576" stroke-miterlimit="10"/>
<path d="M28.72 39.447C29.5263 39.6317 30.0469 40.3874 29.8622 41.1599C29.6942 41.9155 28.888 42.3857 28.0818 42.2178C27.2756 42.0331 26.7549 41.2774 26.9396 40.5049C27.1244 39.7325 27.9138 39.2623 28.72 39.447Z" stroke="#67CDFD" stroke-width="0.3576" stroke-miterlimit="10"/>
<path d="M29.5605 40.2528L38.4961 33.7036" stroke="#67CDFD" stroke-width="0.3576" stroke-miterlimit="10"/>
<path d="M29.5599 19.4969C30.3661 19.6816 30.8868 20.4373 30.702 21.2097C30.5341 21.9654 29.7278 22.4356 28.9216 22.2677C28.1154 22.083 27.5947 21.3273 27.7795 20.5548C27.9642 19.7991 28.7537 19.3121 29.5599 19.4969Z" stroke="#67CDFD" stroke-width="0.3576" stroke-miterlimit="10"/>
<path d="M30.3809 21.5961L38.0735 26.063" stroke="#67CDFD" stroke-width="0.3576" stroke-miterlimit="10"/>
<path d="M50.1028 39.1955C50.9091 39.3802 51.4298 40.1359 51.245 40.9084C51.077 41.6641 50.2708 42.1343 49.4646 41.9663C48.6584 41.7816 48.1377 41.0259 48.3225 40.2535C48.5072 39.481 49.2966 39.0108 50.1028 39.1955Z" stroke="#67CDFD" stroke-width="0.3576" stroke-miterlimit="10"/>
<path d="M49.296 39.296L46.0879 34.2917" stroke="#67CDFD" stroke-width="0.3576" stroke-miterlimit="10"/>
<path d="M53.8138 17.8346C54.62 18.0193 55.1407 18.775 54.9559 19.5474C54.788 20.3031 53.9818 20.7733 53.1755 20.6054C52.3693 20.4207 51.8486 19.665 52.0334 18.8925C52.2014 18.12 53.0076 17.6498 53.8138 17.8346Z" stroke="#67CDFD" stroke-width="0.3576" stroke-miterlimit="10"/>
<path d="M46.709 25.6096L52.4029 20.1183" stroke="#67CDFD" stroke-width="0.3576" stroke-miterlimit="10"/>
<path d="M39.8216 12.7295C40.6278 12.9142 41.1485 13.6699 40.9637 14.4423C40.7958 15.198 39.9896 15.6682 39.1833 15.5003C38.3771 15.3156 37.8564 14.5599 38.0412 13.7874C38.226 13.0149 39.0154 12.5447 39.8216 12.7295Z" stroke="#67CDFD" stroke-width="0.3576" stroke-miterlimit="10"/>
<path d="M42.4089 24.1318L39.9902 15.7018" stroke="#67CDFD" stroke-width="0.3576" stroke-miterlimit="10"/>
<path d="M161.462 196.007L158.545 195.99L158.656 177.608L156.741 177.597L156.63 195.978L153.712 195.961C153.611 195.96 153.529 196.02 153.529 196.096L153.516 198.211C153.516 198.287 153.596 198.348 153.698 198.349L161.448 198.395C161.549 198.396 161.631 198.336 161.631 198.26L161.644 196.145C161.644 196.069 161.564 196.008 161.462 196.007Z" fill="white" stroke="#67CDFD" stroke-width="0.907" stroke-miterlimit="10"/>
<path d="M158.592 131.059L158.591 112.5L158.061 112.5L158.062 131.059L158.592 131.059Z" fill="#67CDFD"/>
<path d="M161.8 136.338L154.789 136.296C152.631 136.283 150.878 138.014 150.865 140.172L150.645 176.667C150.642 177.143 151.024 177.53 151.501 177.533L164.6 177.612C165.076 177.615 165.464 177.233 165.466 176.757L165.687 140.261C165.69 138.114 163.958 136.351 161.8 136.338Z" stroke="#67CDFD" stroke-width="0.907" stroke-miterlimit="10"/>
<path d="M161.773 132.377C161.778 131.516 160.911 130.812 159.827 130.805L156.828 130.787C155.754 130.781 154.869 131.474 154.864 132.335L154.84 136.296L161.749 136.338L161.773 132.377Z" fill="white" stroke="#67CDFD" stroke-width="0.5298" stroke-miterlimit="10"/>
<path d="M155.049 155.391L161.32 155.429" stroke="#67CDFD" stroke-width="0.7437" stroke-miterlimit="10"/>
<path d="M155.029 158.845L161.3 158.883" stroke="#67CDFD" stroke-width="0.7437" stroke-miterlimit="10"/>
<path d="M155.008 162.299L161.279 162.337" stroke="#67CDFD" stroke-width="0.7437" stroke-miterlimit="10"/>
<path d="M154.986 165.753L161.258 165.791" stroke="#67CDFD" stroke-width="0.7437" stroke-miterlimit="10"/>
<path d="M154.967 169.207L161.238 169.245" stroke="#67CDFD" stroke-width="0.7437" stroke-miterlimit="10"/>
<path d="M154.945 172.661L161.216 172.699" stroke="#67CDFD" stroke-width="0.7437" stroke-miterlimit="10"/>
</g>
<defs>
<clipPath id="clip0">
<rect width="242" height="204" fill="white"/>
</clipPath>
</defs>
</svg>
