<svg width="28" height="29" viewBox="0 0 28 29" xmlns="http://www.w3.org/2000/svg">
  <g class="virus" style="fill: currentColor">
    <path
      d="M13.974 23.9146C19.4982 23.9146 23.9764 19.4362 23.9764 13.9117C23.9764 8.38734 19.4982 3.90894 13.974 3.90894C8.44988 3.90894 3.97168 8.38734 3.97168 13.9117C3.97168 19.4362 8.44988 23.9146 13.974 23.9146Z" />
    <path d="M13.7842 6.68256L16.5579 0L17.1043 7.1869L13.7842 6.68256Z" />
    <path d="M6.9541 8.00621L3.99121 1.42871L9.60177 5.94679L6.9541 8.00621Z" />
    <path d="M7.35438 13.9958L0.945312 10.6545L8.15287 10.7386L7.35438 13.9958Z" />
    <path d="M7.1025 18.8497L0 20.1526L5.73664 15.7816L7.1025 18.8497Z" />
    <path d="M11.6001 20.2577L6.78809 25.6374L8.63727 18.6816L11.6001 20.2577Z" />
    <path d="M17.1058 21.792L16.6435 28.9999L13.8066 22.3804L17.1058 21.792Z" />
    <path d="M20.6127 16.8115L24.6683 22.7796L18.3643 19.3122L20.6127 16.8115Z" />
    <path d="M21.0544 12.7977L27.9468 14.9832L20.8232 16.139L21.0544 12.7977Z" />
    <path d="M19.8984 7.85911L26.6647 5.3584L21.7686 10.654L19.8984 7.85911Z" />
  </g>
</svg>