<svg width="235" height="197" viewBox="0 0 235 197" fill="none" xmlns="http://www.w3.org/2000/svg">
<g clip-path="url(#clip0)">
<path d="M176.34 176.238L157.114 176.196C157.114 176.196 143.559 176.251 143.407 166.596C143.255 156.623 150.821 156.319 156.492 156.319C162.163 156.319 176.976 157.038 176.976 145.378C176.976 133.717 156.796 135.626 156.796 135.626L75.8531 135.515L33.957 135.695C33.957 135.695 14.0947 135.515 14.0947 145.488C14.0947 157.619 33.957 156.278 33.957 156.278L53.183 156.319C53.183 156.319 66.7381 156.264 66.8902 165.919C67.0424 175.892 60.5968 176.196 54.9258 176.196C49.2548 176.196 34.4411 175.477 34.4411 187.137C34.4411 198.798 54.6215 196.889 54.6215 196.889L134.444 197L176.34 196.82C176.34 196.82 196.202 197 196.202 187.027C196.202 175.684 176.34 176.238 176.34 176.238Z" fill="#E6E6E6"/>
<g opacity="0.15">
<path opacity="0.15" d="M6.24881 79.8777C6.54402 78.332 5.45738 76.8257 3.82171 76.5133C2.18605 76.2008 0.620763 77.2006 0.325549 78.7463C0.0303342 80.292 1.11698 81.7983 2.75265 82.1107C4.38831 82.4232 5.95359 81.4234 6.24881 79.8777Z" stroke="#67CDFD" stroke-width="0.4216" stroke-miterlimit="10"/>
<path opacity="0.15" d="M175.547 21.3809C175.842 19.8352 174.755 18.3289 173.12 18.0164C171.484 17.704 169.919 18.7038 169.623 20.2495C169.328 21.7952 170.415 23.3015 172.05 23.6139C173.686 23.9263 175.251 22.9266 175.547 21.3809Z" stroke="#67CDFD" stroke-width="0.4216" stroke-miterlimit="10"/>
<path opacity="0.15" d="M234.668 129.775C234.377 131.324 232.814 132.32 231.182 132.002C229.55 131.684 228.458 130.19 228.762 128.641C229.052 127.092 230.615 126.096 232.247 126.414C233.88 126.732 234.958 128.226 234.668 129.775Z" stroke="#67CDFD" stroke-width="0.4216" stroke-miterlimit="10"/>
<path opacity="0.15" d="M89.2277 18.5633C89.0894 19.2964 88.3563 19.7667 87.5817 19.6145C86.8071 19.4624 86.2954 18.7569 86.4337 18.0238C86.572 17.2907 87.3051 16.8204 88.0797 16.9726C88.8542 17.1247 89.366 17.844 89.2277 18.5633Z" stroke="#67CDFD" stroke-width="0.4216" stroke-miterlimit="10"/>
<path opacity="0.15" d="M215.525 169.682C215.664 168.955 215.15 168.245 214.377 168.097C213.604 167.95 212.865 168.42 212.726 169.148C212.587 169.876 213.101 170.585 213.874 170.733C214.647 170.881 215.386 170.41 215.525 169.682Z" stroke="#67CDFD" stroke-width="0.4216" stroke-miterlimit="10"/>
<path opacity="0.15" d="M48.4377 113.619C48.2993 114.352 47.5663 114.822 46.7917 114.67C46.0171 114.518 45.5053 113.813 45.6437 113.079C45.782 112.346 46.515 111.876 47.2896 112.028C48.0642 112.18 48.576 112.9 48.4377 113.619Z" stroke="#67CDFD" stroke-width="0.4216" stroke-miterlimit="10"/>
<path opacity="0.15" d="M227.212 63.3107C227.074 64.0438 226.341 64.5141 225.566 64.362C224.792 64.2098 224.28 63.5044 224.418 62.7713C224.556 62.0381 225.289 61.5678 226.064 61.72C226.839 61.8722 227.35 62.5776 227.212 63.3107Z" stroke="#67CDFD" stroke-width="0.4216" stroke-miterlimit="10"/>
</g>
<path d="M28.5065 121.489C28.7831 120.66 29.7237 120.217 30.6089 120.494C31.4941 120.77 31.9782 121.683 31.7016 122.513C31.425 123.343 30.4844 123.786 29.5992 123.509C28.7139 123.232 28.2298 122.319 28.5065 121.489Z" stroke="#67CDFD" stroke-width="0.4216" stroke-miterlimit="10"/>
<path d="M16.5426 131.145C16.8192 130.315 17.7598 129.872 18.645 130.149C19.5302 130.425 20.0144 131.338 19.7377 132.168C19.4611 132.998 18.5205 133.441 17.6353 133.164C16.7501 132.874 16.266 131.975 16.5426 131.145Z" stroke="#67CDFD" stroke-width="0.4216" stroke-miterlimit="10"/>
<path d="M15.7548 116.413C16.0315 115.583 16.972 115.14 17.8573 115.417C18.7425 115.694 19.2266 116.607 18.95 117.437C18.6733 118.267 17.7328 118.709 16.8475 118.433C15.9623 118.156 15.4644 117.257 15.7548 116.413Z" stroke="#67CDFD" stroke-width="0.4216" stroke-miterlimit="10"/>
<path d="M0.885377 132.929C1.16201 132.099 2.10256 131.656 2.98779 131.933C3.87302 132.21 4.35712 133.123 4.08049 133.953C3.80386 134.782 2.8633 135.225 1.97808 134.948C1.09285 134.658 0.608744 133.759 0.885377 132.929Z" stroke="#67CDFD" stroke-width="0.4216" stroke-miterlimit="10"/>
<path d="M28.9776 122.748L18.839 130.01C18.756 130.066 18.6315 130.024 18.6177 129.927L16.8611 118.571C16.8473 118.516 16.7781 118.502 16.7366 118.53L3.61035 132.265" stroke="#67CDFD" stroke-width="0.4216" stroke-miterlimit="10"/>
<path d="M119.547 3.47207C118.62 3.5274 117.804 2.87728 117.721 1.99201C117.638 1.10674 118.316 0.359799 119.242 0.290637C120.169 0.235308 120.985 0.885427 121.068 1.7707C121.151 2.65597 120.459 3.41674 119.547 3.47207Z" stroke="#67CDFD" stroke-width="0.4216" stroke-miterlimit="10"/>
<path d="M133.794 10.3882C132.867 10.4435 132.051 9.79342 131.968 8.90815C131.885 8.03671 132.563 7.27594 133.489 7.20677C134.416 7.15145 135.232 7.80157 135.315 8.68683C135.398 9.5721 134.706 10.3329 133.794 10.3882Z" stroke="#67CDFD" stroke-width="0.4216" stroke-miterlimit="10"/>
<path d="M119.796 16.5021C118.869 16.5574 118.053 15.9073 117.97 15.022C117.887 14.1506 118.565 13.3898 119.491 13.3207C120.418 13.2653 121.234 13.9155 121.317 14.8007C121.4 15.6722 120.722 16.4329 119.796 16.5021Z" stroke="#67CDFD" stroke-width="0.4216" stroke-miterlimit="10"/>
<path d="M120.584 2.60083L131.815 8.82538C131.884 8.86687 131.884 8.94987 131.815 8.99137L121.317 14.8009" stroke="#67CDFD" stroke-width="0.4216" stroke-miterlimit="10"/>
<path d="M204.598 44.5401C204.487 45.0934 203.934 45.4392 203.353 45.3286C202.772 45.2179 202.385 44.6784 202.495 44.139C202.606 43.5857 203.159 43.2399 203.74 43.3505C204.307 43.4474 204.695 43.9868 204.598 44.5401Z" stroke="#67CDFD" stroke-width="0.4216" stroke-miterlimit="10"/>
<path d="M192.8 51.9819C192.579 53.1577 191.389 53.9046 190.158 53.6695C188.913 53.4343 188.097 52.2862 188.318 51.1243C188.54 49.9486 189.729 49.2016 190.96 49.4368C192.205 49.6719 193.021 50.82 192.8 51.9819Z" stroke="#67CDFD" stroke-width="0.4216" stroke-miterlimit="10"/>
<path d="M197.087 50.8476C199.535 60.6547 198.553 69.2169 194.887 69.9639C191.222 70.7247 186.27 63.3797 183.822 53.5726C181.374 43.7655 182.356 35.2032 186.021 34.4563C189.687 33.7094 194.639 41.0405 197.087 50.8476Z" stroke="#67CDFD" stroke-width="0.4216" stroke-miterlimit="10"/>
<path d="M206.887 61.8413C208.699 58.7504 202.811 51.9322 193.736 46.6125C184.662 41.2929 175.836 39.4861 174.025 42.5771C172.213 45.668 178.101 52.4862 187.175 57.8058C196.25 63.1255 205.075 64.9322 206.887 61.8413Z" stroke="#67CDFD" stroke-width="0.4216" stroke-miterlimit="10"/>
<path d="M192.15 58.531C202.268 55.8267 209.715 50.8105 208.784 47.327C207.853 43.8434 198.896 43.2117 188.778 45.916C178.66 48.6202 171.213 53.6365 172.144 57.12C173.075 60.6036 182.032 61.2353 192.15 58.531Z" stroke="#67CDFD" stroke-width="0.4216" stroke-miterlimit="10"/>
<path d="M46.9741 29.8167C47.5272 26.9204 45.494 24.0985 42.4328 23.5137C39.3716 22.929 36.4415 24.8029 35.8883 27.6992C35.3352 30.5956 37.3683 33.4175 40.4296 34.0022C43.4908 34.5869 46.4209 32.713 46.9741 29.8167Z" stroke="#67CDFD" stroke-width="0.4216" stroke-miterlimit="10"/>
<path d="M27.8985 38.302C28.6869 38.4818 29.1849 39.2149 29.005 39.9619C28.8391 40.7088 28.0645 41.1653 27.2761 40.9855C26.4877 40.8057 25.9897 40.0725 26.1696 39.3256C26.3355 38.5925 27.1101 38.136 27.8985 38.302Z" stroke="#67CDFD" stroke-width="0.4216" stroke-miterlimit="10"/>
<path d="M28.7002 39.1043L37.3865 32.7415" stroke="#67CDFD" stroke-width="0.4216" stroke-miterlimit="10"/>
<path d="M28.7149 18.9368C29.5033 19.1166 30.0013 19.8497 29.8214 20.5967C29.6555 21.3436 28.8809 21.8001 28.0925 21.6202C27.3041 21.4404 26.8061 20.7073 26.986 19.9604C27.1519 19.2273 27.9265 18.7708 28.7149 18.9368Z" stroke="#67CDFD" stroke-width="0.4216" stroke-miterlimit="10"/>
<path d="M29.5039 20.984L36.973 25.3135" stroke="#67CDFD" stroke-width="0.4216" stroke-miterlimit="10"/>
<path d="M48.6612 38.0669C49.4496 38.2467 49.9476 38.9798 49.7677 39.7267C49.6018 40.4737 48.8272 40.9302 48.0388 40.7503C47.2504 40.5705 46.7524 39.8374 46.9322 39.0905C47.0982 38.3435 47.8728 37.887 48.6612 38.0669Z" stroke="#67CDFD" stroke-width="0.4216" stroke-miterlimit="10"/>
<path d="M47.8721 38.1635L44.7461 33.3083" stroke="#67CDFD" stroke-width="0.4216" stroke-miterlimit="10"/>
<path d="M52.2569 17.332C53.0453 17.5118 53.5432 18.2449 53.3634 18.9919C53.1975 19.7388 52.4229 20.1953 51.6345 20.0155C50.8461 19.8356 50.3481 19.1025 50.5279 18.3556C50.6939 17.6086 51.4685 17.1522 52.2569 17.332Z" stroke="#67CDFD" stroke-width="0.4216" stroke-miterlimit="10"/>
<path d="M45.3545 24.8705L50.8872 19.545" stroke="#67CDFD" stroke-width="0.4216" stroke-miterlimit="10"/>
<path d="M38.6729 12.3663C39.4613 12.5461 39.9593 13.2792 39.7795 14.0262C39.6135 14.7731 38.8389 15.2296 38.0505 15.0498C37.2621 14.87 36.7642 14.1368 36.944 13.3899C37.1238 12.6429 37.8845 12.1865 38.6729 12.3663Z" stroke="#67CDFD" stroke-width="0.4216" stroke-miterlimit="10"/>
<path d="M41.1904 23.4459L38.8252 15.2572" stroke="#67CDFD" stroke-width="0.4216" stroke-miterlimit="10"/>
<path opacity="0.7" d="M168.194 55.9658C129.382 69.1203 108.994 46.2417 108.994 46.2555C108.994 46.2555 88.6062 69.1203 49.7945 55.9658C49.7945 55.9658 27.5947 131.31 108.953 180.457H109.036C190.393 131.324 168.194 55.9658 168.194 55.9658Z" fill="#CCCCCC"/>
<path d="M153.961 69.7842C124.486 79.7711 108.994 62.3977 108.994 62.3977C108.994 62.3977 93.5028 79.7711 64.0414 69.7703C64.0414 69.7703 47.1806 126.995 108.967 164.314H109.036C170.808 126.995 153.961 69.7842 153.961 69.7842Z" fill="white" stroke="#67CDFD" stroke-width="1.0595" stroke-miterlimit="10"/>
<path d="M188.844 128.198C192.48 128.198 195.428 125.25 195.428 121.614C195.428 117.977 192.48 115.03 188.844 115.03C185.207 115.03 182.26 117.977 182.26 121.614C182.26 125.25 185.207 128.198 188.844 128.198Z" fill="#999999"/>
<path d="M188.719 116.855L190.545 112.457L190.904 117.187L188.719 116.855Z" fill="#999999"/>
<path d="M184.223 117.727L182.272 113.397L185.966 116.371L184.223 117.727Z" fill="#999999"/>
<path d="M184.486 121.669L180.268 119.47L185.012 119.525L184.486 121.669Z" fill="#999999"/>
<path d="M184.321 124.864L179.646 125.722L183.422 122.845L184.321 124.864Z" fill="#999999"/>
<path d="M187.281 125.791L184.113 129.332L185.33 124.754L187.281 125.791Z" fill="#999999"/>
<path d="M190.905 126.801L190.601 131.545L188.733 127.188L190.905 126.801Z" fill="#999999"/>
<path d="M193.213 123.523L195.883 127.451L191.733 125.169L193.213 123.523Z" fill="#999999"/>
<path d="M193.505 120.881L198.041 122.319L193.353 123.08L193.505 120.881Z" fill="#999999"/>
<path d="M192.743 117.63L197.197 115.984L193.974 119.47L192.743 117.63Z" fill="#999999"/>
<path d="M141.637 143.925C145.273 143.925 148.22 140.978 148.22 137.341C148.22 133.705 145.273 130.757 141.637 130.757C138 130.757 135.053 133.705 135.053 137.341C135.053 140.978 138 143.925 141.637 143.925Z" fill="#999999"/>
<path d="M141.512 132.569L143.351 128.184L143.697 132.915L141.512 132.569Z" fill="#999999"/>
<path d="M137.016 133.454L135.065 129.125L138.758 132.085L137.016 133.454Z" fill="#999999"/>
<path d="M137.279 137.396L133.061 135.183L137.805 135.252L137.279 137.396Z" fill="#999999"/>
<path d="M137.114 140.592L132.438 141.435L136.215 138.572L137.114 140.592Z" fill="#999999"/>
<path d="M140.074 141.505L136.906 145.06L138.123 140.467L140.074 141.505Z" fill="#999999"/>
<path d="M143.698 142.528L143.394 147.259L141.526 142.902L143.698 142.528Z" fill="#999999"/>
<path d="M146.006 139.25L148.676 143.178L144.526 140.896L146.006 139.25Z" fill="#999999"/>
<path d="M146.298 136.608L150.834 138.047L146.146 138.807L146.298 136.608Z" fill="#999999"/>
<path d="M145.536 133.357L149.99 131.711L146.767 135.183L145.536 133.357Z" fill="#999999"/>
<path d="M41.6337 89.8134C45.2698 89.8134 48.2175 86.8655 48.2175 83.2292C48.2175 79.5929 45.2698 76.645 41.6337 76.645C37.9975 76.645 35.0498 79.5929 35.0498 83.2292C35.0498 86.8655 37.9975 89.8134 41.6337 89.8134Z" fill="#999999"/>
<path d="M38.5207 79.6191L37.1514 75.0682L40.4156 78.4987L38.5207 79.6191Z" fill="#999999"/>
<path d="M35.5891 83.1465L31.3428 81.044L36.0732 80.9886L35.5891 83.1465Z" fill="#999999"/>
<path d="M38.2999 86.0374L33.6387 87.0057L37.3456 84.0455L38.2999 86.0374Z" fill="#999999"/>
<path d="M40.1947 88.6101L37.124 92.2342L38.2167 87.6281L40.1947 88.6101Z" fill="#999999"/>
<path d="M43.072 87.4482L42.8783 92.1927L40.9004 87.877L43.072 87.4482Z" fill="#999999"/>
<path d="M46.5156 85.9265L49.282 89.7996L45.0771 87.6141L46.5156 85.9265Z" fill="#999999"/>
<path d="M46.2121 81.9429L50.7765 83.2708L46.1152 84.1422L46.2121 81.9429Z" fill="#999999"/>
<path d="M44.7734 79.7021L49.1857 77.9454L46.046 81.5003L44.7734 79.7021Z" fill="#999999"/>
<path d="M42.1318 77.6825L44.5247 73.5743L44.2481 78.305L42.1318 77.6825Z" fill="#999999"/>
</g>
<defs>
<clipPath id="clip0">
<rect width="235" height="197" fill="white"/>
</clipPath>
</defs>
</svg>
